<svg width="120" height="120" viewBox="0 0 120 120" fill="none" xmlns="http://www.w3.org/2000/svg">
<path d="M114.75 27.375C115.125 27.375 115.5 27.0937 115.5 26.625V15.2812C115.5 14.9062 115.219 14.5312 114.75 14.5312C114.281 14.5312 114 14.8125 114 15.2812V26.625C114.094 27 114.375 27.375 114.75 27.375Z" fill="#616161"/>
<path d="M114.75 34.7812C115.125 34.7812 115.5 34.5 115.5 34.0312V30.375C115.5 30 115.219 29.625 114.75 29.625C114.281 29.625 114 29.9063 114 30.375V34.0312C114.094 34.5 114.375 34.7812 114.75 34.7812Z" fill="#616161"/>
<path d="M5.0625 73.0312C4.6875 73.0312 4.3125 73.3125 4.3125 73.7812V85.125C4.3125 85.5 4.59375 85.875 5.0625 85.875C5.4375 85.875 5.8125 85.5938 5.8125 85.125V73.7812C5.8125 73.4062 5.53125 73.0312 5.0625 73.0312Z" fill="#616161"/>
<path d="M5.0625 88.125C4.6875 88.125 4.3125 88.4063 4.3125 88.875V92.5312C4.3125 92.9062 4.59375 93.2812 5.0625 93.2812C5.4375 93.2812 5.8125 93 5.8125 92.5312V88.875C5.8125 88.5 5.53125 88.125 5.0625 88.125Z" fill="#616161"/>
<path d="M85.5938 57.375C85.6875 57.4687 85.875 57.5625 86.0625 57.5625C86.25 57.5625 86.4375 57.4687 86.5313 57.375C86.8125 57.0937 86.8125 56.625 86.5313 56.3437L85.0312 54.8437C84.75 54.5625 84.2813 54.5625 84 54.8437C83.7187 55.125 83.7187 55.5937 84 55.875L85.5938 57.375Z" fill="#616161"/>
<path d="M88.8751 60.75L90.3751 62.25C90.4688 62.3437 90.6563 62.4375 90.8438 62.4375C91.0313 62.4375 91.2188 62.3437 91.3126 62.25C91.5938 61.9687 91.5938 61.5 91.3126 61.2187L89.8126 59.7187C89.5313 59.4375 89.0626 59.4375 88.7813 59.7187C88.5938 60 88.5938 60.4688 88.8751 60.75Z" fill="#616161"/>
<path d="M84.0938 62.1563C84.1876 62.25 84.3751 62.3438 84.5626 62.3438C84.7501 62.3438 84.9376 62.25 85.0313 62.1563L86.5313 60.6562C86.8126 60.375 86.8126 59.9062 86.5313 59.625C86.2501 59.3438 85.7813 59.3438 85.5001 59.625L84.0001 61.125C83.8126 61.5 83.8126 61.875 84.0938 62.1563Z" fill="#616161"/>
<path d="M89.4375 57.5625C89.625 57.5625 89.8125 57.4687 89.9062 57.375L91.4062 55.875C91.6875 55.5937 91.6875 55.125 91.4062 54.8437C91.125 54.5625 90.6563 54.5625 90.375 54.8437L88.875 56.3437C88.5937 56.625 88.5937 57.0937 88.875 57.375C89.0625 57.5625 89.25 57.5625 89.4375 57.5625Z" fill="#616161"/>
<path d="M50.1562 5.34375C50.25 5.4375 50.4375 5.53125 50.625 5.53125C50.8125 5.53125 51 5.4375 51.0937 5.34375C51.375 5.0625 51.375 4.59375 51.0937 4.3125L49.6875 2.8125C49.4062 2.53125 48.9375 2.53125 48.6562 2.8125C48.375 3.09375 48.375 3.5625 48.6562 3.84375L50.1562 5.34375Z" fill="#616161"/>
<path d="M54.9375 10.125C55.0312 10.2187 55.2187 10.3125 55.4062 10.3125C55.5937 10.3125 55.7812 10.2187 55.875 10.125C56.1562 9.84375 56.1562 9.375 55.875 9.09375L54.375 7.59375C54.0937 7.3125 53.625 7.3125 53.3437 7.59375C53.0625 7.875 53.0625 8.34375 53.3437 8.625L54.9375 10.125Z" fill="#616161"/>
<path d="M49.125 10.3125C49.3125 10.3125 49.5 10.2187 49.5938 10.125L51.0938 8.625C51.375 8.34375 51.375 7.875 51.0938 7.59375C50.8125 7.3125 50.3438 7.3125 50.0625 7.59375L48.5625 9.09375C48.2813 9.375 48.2813 9.84375 48.5625 10.125C48.75 10.3125 48.9375 10.3125 49.125 10.3125Z" fill="#616161"/>
<path d="M54 5.53125C54.1875 5.53125 54.375 5.4375 54.4687 5.34375L55.9688 3.84375C56.25 3.5625 56.25 3.09375 55.9688 2.8125C55.6875 2.53125 55.2187 2.53125 54.9375 2.8125L53.4375 4.3125C53.1563 4.59375 53.1563 5.0625 53.4375 5.34375C53.625 5.4375 53.8125 5.53125 54 5.53125Z" fill="#616161"/>
<path d="M54.2812 87.9375L52.7812 86.4375C52.5 86.1563 52.0312 86.1563 51.75 86.4375C51.4688 86.7187 51.4688 87.1875 51.75 87.4688L53.25 88.9688C53.4375 89.0625 53.625 89.0625 53.8125 89.0625C54 89.0625 54.1875 88.9688 54.2812 88.875C54.5625 88.5938 54.5625 88.2188 54.2812 87.9375Z" fill="#616161"/>
<path d="M57.5625 91.2187C57.2813 90.9375 56.8125 90.9375 56.5312 91.2187C56.25 91.5 56.25 91.9687 56.5312 92.25L58.0312 93.75C58.125 93.8437 58.3125 93.9375 58.5 93.9375C58.6875 93.9375 58.875 93.8437 58.9687 93.75C59.25 93.4687 59.25 93 58.9687 92.7187L57.5625 91.2187Z" fill="#616161"/>
<path d="M53.25 91.2187L51.75 92.7187C51.4688 93 51.4688 93.4687 51.75 93.75C51.8437 93.8437 52.0312 93.9375 52.2187 93.9375C52.4062 93.9375 52.5937 93.8437 52.6875 93.75L54.1875 92.25C54.4687 91.9687 54.4687 91.5 54.1875 91.2187C54 90.9375 53.5312 90.9375 53.25 91.2187Z" fill="#616161"/>
<path d="M58.125 86.4375L56.625 87.9375C56.3437 88.2188 56.3437 88.6875 56.625 88.9688C56.7188 89.0625 56.9063 89.1562 57.0938 89.1562C57.2813 89.1562 57.4688 89.0625 57.5625 88.9688L59.0625 87.4688C59.3438 87.1875 59.3438 86.7187 59.0625 86.4375C58.7813 86.1563 58.4063 86.1563 58.125 86.4375Z" fill="#616161"/>
<path d="M2.71875 109.875C2.4375 109.594 1.96875 109.594 1.6875 109.875C1.40625 110.156 1.40625 110.625 1.6875 110.906L3.1875 112.406C3.28125 112.5 3.46875 112.594 3.65625 112.594C3.84375 112.594 4.03125 112.5 4.125 112.406C4.40625 112.125 4.40625 111.656 4.125 111.375L2.71875 109.875Z" fill="#616161"/>
<path d="M7.59375 114.656C7.3125 114.375 6.84375 114.375 6.5625 114.656C6.28125 114.937 6.28125 115.406 6.5625 115.687L8.0625 117.187C8.15625 117.281 8.34375 117.375 8.53125 117.375C8.71875 117.375 8.90625 117.281 9 117.187C9.28125 116.906 9.28125 116.437 9 116.156L7.59375 114.656Z" fill="#616161"/>
<path d="M3.28125 114.656L1.78125 116.156C1.5 116.437 1.5 116.906 1.78125 117.187C1.875 117.281 2.0625 117.375 2.25 117.375C2.4375 117.375 2.625 117.281 2.71875 117.187L4.21875 115.687C4.5 115.406 4.5 114.937 4.21875 114.656C3.9375 114.375 3.5625 114.375 3.28125 114.656Z" fill="#616161"/>
<path d="M8.0625 109.875L6.5625 111.375C6.28125 111.656 6.28125 112.125 6.5625 112.406C6.65625 112.5 6.84375 112.594 7.03125 112.594C7.21875 112.594 7.40625 112.5 7.5 112.406L9 110.906C9.28125 110.625 9.28125 110.156 9 109.875C8.8125 109.594 8.34375 109.594 8.0625 109.875Z" fill="#616161"/>
<path d="M99.4688 32.25C99.4688 30.5625 98.1563 29.25 96.4688 29.25C94.7813 29.25 93.4688 30.5625 93.4688 32.25C93.4688 33.9375 94.7813 35.25 96.4688 35.25C98.1563 35.25 99.4688 33.9375 99.4688 32.25ZM94.9688 32.25C94.9688 31.4063 95.7188 30.6562 96.5625 30.6562C97.4063 30.6562 98.1563 31.4063 98.1563 32.25C98.1563 33.0937 97.4063 33.8437 96.5625 33.8437C95.625 33.8437 94.9688 33.1875 94.9688 32.25Z" fill="#616161"/>
<path d="M75.5625 110.438C73.875 110.438 72.5625 111.75 72.5625 113.437C72.5625 115.125 73.875 116.437 75.5625 116.437C77.25 116.437 78.5625 115.125 78.5625 113.437C78.5625 111.75 77.1563 110.438 75.5625 110.438ZM75.5625 114.937C74.7188 114.937 73.9688 114.187 73.9688 113.344C73.9688 112.5 74.7188 111.75 75.5625 111.75C76.4063 111.75 77.1563 112.5 77.1563 113.344C77.0625 114.281 76.4063 114.937 75.5625 114.937Z" fill="#616161"/>
<path d="M26.1562 96.4688C26.1562 94.7813 24.8438 93.4688 23.1563 93.4688C21.4688 93.4688 20.1562 94.7813 20.1562 96.4688C20.1562 98.1563 21.4688 99.4688 23.1563 99.4688C24.8438 99.375 26.1562 98.0625 26.1562 96.4688ZM21.6563 96.4688C21.6563 95.625 22.4062 94.875 23.25 94.875C24.0937 94.875 24.8438 95.625 24.8438 96.4688C24.8438 97.3125 24.0937 98.0625 23.25 98.0625C22.3125 97.9688 21.6563 97.3125 21.6563 96.4688Z" fill="#616161"/>
<path d="M8.34375 55.9688C8.34375 56.3438 8.625 56.7188 9.09375 56.7188H21.1875C21.5625 56.7188 21.9375 56.4375 21.9375 55.9688C21.9375 55.5 21.5625 55.3125 21.1875 55.3125H9.09375C8.71875 55.3125 8.34375 55.5938 8.34375 55.9688Z" fill="#616161"/>
<path d="M5.0625 55.3125H1.21875C0.84375 55.3125 0.46875 55.5938 0.46875 56.0625C0.46875 56.5313 0.75 56.8125 1.21875 56.8125H5.15625C5.53125 56.8125 5.90625 56.5313 5.90625 56.0625C5.90625 55.5938 5.53125 55.3125 5.0625 55.3125Z" fill="#616161"/>
<path d="M1.21875 52.5H9.65625C10.0312 52.5 10.4062 52.2188 10.4062 51.75C10.4062 51.2812 10.125 51 9.65625 51H1.21875C0.84375 51 0.46875 51.2812 0.46875 51.75C0.46875 52.2188 0.75 52.5 1.21875 52.5Z" fill="#616161"/>
<path d="M16.0313 52.5C16.4063 52.5 16.7812 52.2188 16.7812 51.75C16.7812 51.2812 16.5 51 16.0313 51H13.3125C12.9375 51 12.5625 51.2812 12.5625 51.75C12.5625 52.2188 12.8438 52.5 13.3125 52.5H16.0313Z" fill="#616161"/>
<path d="M85.2188 93.75C85.2188 93.375 84.9375 93 84.4687 93H72.375C72 93 71.625 93.2813 71.625 93.75C71.625 94.125 71.9062 94.5 72.375 94.5H84.4687C84.9375 94.4063 85.2188 94.125 85.2188 93.75Z" fill="#616161"/>
<path d="M92.4375 93H88.5C88.125 93 87.75 93.2813 87.75 93.75C87.75 94.125 88.0313 94.5 88.5 94.5H92.4375C92.8125 94.5 93.1875 94.2188 93.1875 93.75C93.0938 93.375 92.8125 93 92.4375 93Z" fill="#616161"/>
<path d="M92.4375 97.2188H84C83.625 97.2188 83.25 97.5 83.25 97.9688C83.25 98.3438 83.5312 98.7188 84 98.7188H92.4375C92.8125 98.7188 93.1875 98.4375 93.1875 97.9688C93.0937 97.5 92.8125 97.2188 92.4375 97.2188Z" fill="#616161"/>
<path d="M80.3437 97.2188H77.625C77.25 97.2188 76.875 97.5 76.875 97.9688C76.875 98.3438 77.1563 98.7188 77.625 98.7188H80.3437C80.7187 98.7188 81.0938 98.4375 81.0938 97.9688C81 97.5 80.7187 97.2188 80.3437 97.2188Z" fill="#616161"/>
<path d="M22.5 27.2812V32.25C22.5 32.625 22.7812 32.9062 23.25 32.9062C23.625 32.9062 24 32.625 23.9063 32.1562V27.1875C25.125 26.9062 25.9688 25.7812 25.9688 24.5625C25.9688 23.8125 25.5937 23.0625 25.125 22.5937L29.9062 13.5937C30.0937 13.2187 30 12.8437 29.625 12.6562C29.25 12.4687 28.875 12.5625 28.6875 12.9375L23.9063 21.9375C23.7188 21.8437 23.5312 21.8437 23.25 21.8437C21.75 21.8437 20.5312 23.0625 20.5312 24.5625C20.5312 25.9687 21.375 27 22.5 27.2812ZM23.25 23.3437C24 23.3437 24.5625 23.9062 24.5625 24.6562C24.5625 25.4062 24 25.9687 23.25 25.9687C22.5 25.9687 21.9375 25.4062 21.9375 24.6562C21.9375 23.9062 22.5 23.3437 23.25 23.3437Z" fill="#5182DD"/>
<path d="M23.25 44.7188C34.3125 44.7188 43.3125 35.7188 43.3125 24.6562C43.2187 13.5937 34.3125 4.6875 23.25 4.6875C12.1875 4.6875 3.1875 13.5937 3.1875 24.6562C3.1875 35.7188 12.1875 44.7188 23.25 44.7188ZM23.25 6.09375C33.4687 6.09375 41.9062 14.4375 41.9062 24.75C41.9062 34.9688 33.5625 43.4062 23.25 43.4062C13.0312 43.4062 4.59375 35.0625 4.59375 24.75C4.59375 14.4375 12.9375 6.09375 23.25 6.09375Z" fill="#616161"/>
<path d="M23.25 11.4375C23.625 11.4375 24 11.1562 24 10.6875V8.625C24 8.25 23.7188 7.875 23.25 7.875C22.875 7.875 22.5 8.15625 22.5 8.625V10.7813C22.5 11.1563 22.875 11.4375 23.25 11.4375Z" fill="#616161"/>
<path d="M9.28125 24H7.125C6.75 24 6.375 24.2812 6.375 24.75C6.375 25.125 6.65625 25.5 7.125 25.5H9.28125C9.65625 25.5 10.0312 25.2188 10.0312 24.75C10.0312 24.2812 9.65625 24 9.28125 24Z" fill="#616161"/>
<path d="M23.25 37.875C22.875 37.875 22.5 38.1562 22.5 38.625V40.7812C22.5 41.1562 22.7812 41.5312 23.25 41.5312C23.625 41.5312 24 41.25 24 40.7812V38.625C23.9063 38.25 23.625 37.875 23.25 37.875Z" fill="#616161"/>
<path d="M37.125 25.4062H39.2813C39.6563 25.4062 40.0312 25.125 40.0312 24.6562C40.0312 24.2812 39.75 23.9062 39.2813 23.9062H37.125C36.75 23.9062 36.375 24.1875 36.375 24.6562C36.4687 25.0312 36.75 25.4062 37.125 25.4062Z" fill="#616161"/>
<path d="M81.4688 41.0625C81.75 41.0625 81.9375 40.9688 82.0313 40.6875C82.2188 40.3125 82.125 39.9375 81.75 39.75L55.7813 24.4688C55.4063 24.2813 55.0313 24.375 54.8438 24.75C54.6563 25.125 54.75 25.5 55.125 25.6875L81.0938 40.9688C81.1875 41.0625 81.2813 41.0625 81.4688 41.0625Z" fill="#616161"/>
<path d="M52.2188 39.8438C52.3125 39.8438 52.3125 39.8438 52.4063 39.8438C52.6875 39.8438 52.9687 39.6563 53.0625 39.2813C53.0625 39.1875 53.1563 39.0938 53.1563 39C53.3438 38.625 53.625 38.5313 54.1875 38.4375C54.75 38.3438 55.4063 38.25 55.875 37.5938C56.1563 37.3125 56.0625 36.8438 55.7813 36.5625C55.5 36.2813 55.0313 36.375 54.75 36.6563C54.5625 36.9375 54.2813 36.9375 53.8125 37.0313C53.25 37.125 52.4062 37.3125 51.8437 38.25C51.75 38.4375 51.6563 38.625 51.5625 38.8125C51.5625 39.375 51.75 39.75 52.2188 39.8438Z" fill="#616161"/>
<path d="M57.2813 33.375C57.8438 33.2812 58.6875 33.0937 59.25 32.1562C59.4375 31.7812 59.3438 31.4062 58.9688 31.2188C58.5938 31.0313 58.2188 31.125 58.0313 31.5C57.8438 31.875 57.5625 31.9688 57 32.0625C56.4375 32.1563 55.5938 32.3438 55.0313 33.2812C55.0313 33.375 54.9375 33.375 54.9375 33.4688C54.75 33.8437 54.9375 34.2187 55.2188 34.4062C55.3125 34.5 55.4063 34.5 55.5 34.5C55.7813 34.5 55.9688 34.3125 56.1563 34.125V34.0312C56.4375 33.4687 56.7188 33.4687 57.2813 33.375Z" fill="#616161"/>
<path d="M48.8437 43.5938C48.6562 43.9688 48.75 44.3438 49.125 44.5313C49.2188 44.625 49.4063 44.625 49.5 44.625C49.7813 44.625 49.9688 44.5313 50.0625 44.25C50.25 43.875 50.5313 43.7813 51.0938 43.6875C51.5625 43.5938 52.0313 43.5 52.5 43.125C52.7813 42.8438 52.875 42.4688 52.5938 42.0938C52.3125 41.8125 51.9375 41.7188 51.5625 42C51.375 42.1875 51.0938 42.1875 50.7188 42.2813C50.25 42.4688 49.4062 42.6563 48.8437 43.5938Z" fill="#616161"/>
<path d="M58.7812 42.375C58.9687 42 59.25 41.9063 59.8125 41.8125C60.375 41.7188 61.0312 41.625 61.5 40.9688C61.7812 40.6875 61.6875 40.2188 61.4062 39.9375C61.125 39.6563 60.6562 39.75 60.375 40.0313C60.1875 40.2188 59.9062 40.3125 59.4375 40.4063C58.875 40.5 58.0312 40.6875 57.4687 41.625C57.375 41.8125 57.2812 42 57.1875 42.1875C57.0937 42.5625 57.2812 42.9375 57.6562 43.0313C57.75 43.0313 57.75 43.0313 57.8437 43.0313C58.125 43.0313 58.4062 42.8438 58.5 42.4688C58.6875 42.5625 58.7812 42.4688 58.7812 42.375Z" fill="#616161"/>
<path d="M54.4687 46.875C54.2812 47.25 54.375 47.625 54.75 47.8125C54.8438 47.9063 55.0313 47.9063 55.125 47.9063C55.4063 47.9063 55.5938 47.8125 55.6875 47.5313C55.875 47.1563 56.1563 47.0625 56.7188 46.9688C57.1875 46.875 57.6563 46.7813 58.125 46.4063C58.4063 46.125 58.5 45.75 58.2188 45.375C57.9375 45.0938 57.5625 45 57.1875 45.2813C57 45.4688 56.7188 45.4688 56.3438 45.5625C55.875 45.8438 55.0312 45.9375 54.4687 46.875Z" fill="#616161"/>
<path d="M60.8439 37.5938C60.9376 37.6875 61.0314 37.6875 61.1251 37.6875C61.4064 37.6875 61.5939 37.5 61.7814 37.3125V37.2188C61.9689 36.8438 62.2501 36.75 62.8126 36.6563C63.3751 36.5625 64.2189 36.375 64.7814 35.4375C64.9689 35.0625 64.8751 34.6875 64.5001 34.5C64.1251 34.3125 63.7501 34.4062 63.5626 34.7812C63.3751 35.1562 63.0939 35.25 62.5314 35.3438C61.9689 35.4375 61.1251 35.625 60.5626 36.5625C60.5626 36.6563 60.4689 36.6563 60.4689 36.75C60.3751 37.0313 60.4689 37.4063 60.8439 37.5938Z" fill="#616161"/>
<path d="M60.375 51.1875C60.4687 51.2813 60.6562 51.2813 60.75 51.2813C61.0312 51.2813 61.2187 51.1875 61.3125 50.9063C61.5 50.5313 61.7812 50.4375 62.3437 50.3438C62.8125 50.25 63.2812 50.1563 63.75 49.7813C64.0312 49.5 64.125 49.125 63.8437 48.75C63.5625 48.4688 63.1875 48.375 62.8125 48.6563C62.625 48.8438 62.3437 48.8438 61.9687 48.9375C61.4062 49.0313 60.5625 49.2188 60 50.1563C59.9062 50.5313 60.0937 51 60.375 51.1875Z" fill="#616161"/>
<path d="M66.4688 40.875C66.5625 40.9688 66.6563 40.9688 66.75 40.9688C67.0313 40.9688 67.2188 40.7813 67.4063 40.5938L67.5 40.5C67.6875 40.125 67.9688 40.0313 68.5313 39.9375C69.0938 39.8438 69.9375 39.6563 70.5 38.7188C70.6875 38.3438 70.5938 37.9688 70.2188 37.7813C69.8438 37.5938 69.4688 37.6875 69.2813 38.0625C69.0938 38.4375 68.8125 38.5313 68.25 38.625C67.6875 38.7188 66.8438 38.9063 66.2813 39.8438C66.2813 39.9375 66.1875 39.9375 66.1875 40.0313C66 40.3125 66.1875 40.7813 66.4688 40.875Z" fill="#616161"/>
<path d="M64.4062 45.75C64.5937 45.375 64.875 45.2813 65.4375 45.1875C66 45.0938 66.6562 45 67.125 44.3438C67.4062 44.0625 67.3125 43.5938 67.0312 43.3125C66.75 43.0313 66.2812 43.125 66 43.4063C65.8125 43.5938 65.5312 43.6875 65.0625 43.7813C64.5937 43.875 63.75 44.0625 63.1875 45C63.0937 45.1875 63 45.375 62.9062 45.5625C62.8125 45.9375 63 46.3125 63.375 46.4063C63.4687 46.4063 63.4687 46.4063 63.5625 46.4063C63.8437 46.4063 64.125 46.2188 64.2187 45.8438C64.3125 45.8438 64.4062 45.8438 64.4062 45.75Z" fill="#616161"/>
<path d="M73.125 43.875C73.3125 43.5 73.5938 43.4062 74.1563 43.3125C74.7188 43.2187 75.5625 43.0312 76.125 42.0938C76.3125 41.7188 76.2188 41.3438 75.8438 41.1563C75.4688 40.9688 75.0938 41.0625 74.9063 41.4375C74.7188 41.8125 74.4375 41.9062 73.875 42C73.3125 42.0937 72.4688 42.2812 71.9063 43.2187C71.9063 43.3125 71.8125 43.3125 71.8125 43.4062C71.625 43.7812 71.8125 44.1562 72.0938 44.3437C72.1875 44.4375 72.2813 44.4375 72.375 44.4375C72.75 44.3438 72.9375 44.1562 73.125 43.875Z" fill="#616161"/>
<path d="M66 54.4688C66.0937 54.5625 66.2812 54.5625 66.375 54.5625C66.6562 54.5625 66.8437 54.4688 66.9375 54.1875C67.125 53.8125 67.4062 53.7188 67.9687 53.625C68.4375 53.5313 68.9062 53.4375 69.375 53.0625C69.6562 52.7813 69.75 52.4063 69.4687 52.0313C69.1875 51.75 68.8125 51.6563 68.4375 51.9375C68.25 52.125 67.9687 52.125 67.5937 52.2188C67.0312 52.3125 66.1875 52.5 65.625 53.4375C65.5312 53.9063 65.7187 54.2813 66 54.4688Z" fill="#616161"/>
<path d="M70.0312 49.0313C70.2187 48.6563 70.5 48.5625 71.0625 48.4688C71.625 48.375 72.2812 48.2813 72.75 47.625C73.0312 47.3438 72.9375 46.875 72.6562 46.5938C72.375 46.3125 71.9062 46.4063 71.625 46.6875C71.4375 46.875 71.1562 46.9688 70.6875 47.0625C70.125 47.1563 69.2812 47.3438 68.7187 48.2813C68.625 48.4688 68.5312 48.6563 68.4375 48.8438C68.3437 49.2188 68.5312 49.5938 68.9062 49.6875C69 49.6875 69 49.6875 69.0937 49.6875C69.375 49.6875 69.6562 49.5 69.75 49.125C69.9375 49.2188 70.0312 49.125 70.0312 49.0313Z" fill="#616161"/>
<path d="M72.2812 75.8438C72.375 75.4688 72.0937 75.0938 71.7187 75.0938C67.9687 74.25 64.5937 69.8438 62.0625 66.6563C61.7812 66.2813 61.5 65.9063 61.2187 65.625C58.5 62.1563 54.375 59.9063 50.5312 59.7188C47.7187 59.625 45.2812 60.6563 43.3125 62.8125C41.5312 64.7813 40.6875 67.5938 41.0625 70.2188C39.375 72 38.1562 73.9688 37.3125 75.75V62.9062C37.2187 61.6875 37.3125 59.1563 38.1562 57.375C38.5312 58.5 39.5625 59.3438 40.7812 59.3438C42.2812 59.3438 43.5 58.125 43.5 56.625C43.5 55.125 42.2812 53.9062 40.7812 53.9062C40.3125 53.9062 39.9375 54 39.4687 54.1875C39.375 54.1875 39.375 54.1875 39.2812 54.1875C35.4375 55.6875 35.9062 62.7187 35.9062 63V81.9375C35.4375 81 34.6875 79.9688 33.8437 79.0313C34.2187 77.0625 33.6562 75 32.3437 73.5938C31.0312 72.0938 29.25 71.3438 27.2812 71.4375C24.6562 71.5312 21.75 73.125 19.875 75.4688L19.3125 76.2188C17.625 78.375 15.375 81.2813 12.9375 81.8438C12.5625 81.9375 12.375 82.2188 12.375 82.5938C12.375 82.9688 12.75 83.25 13.125 83.25C17.3437 83.0625 21.1875 83.25 24.75 83.7188C25.6875 83.9063 26.625 84 27.5625 84C28.5 84 29.5312 83.8125 30.5625 83.3438C31.875 82.7813 32.8125 81.8438 33.4687 80.5313C35.3437 82.7813 36 85.5 36.0937 85.875V98.4375C33.9375 98.7188 32.7187 100.406 31.5 102C30.75 103.031 30 103.969 28.9687 104.719C27.75 105.563 26.3437 106.125 25.0312 106.594C22.5 107.438 19.875 108.375 18.5625 111.75C18.4687 111.938 18.4687 112.219 18.6562 112.406C18.75 112.594 19.0312 112.688 19.2187 112.688H57.75C58.125 112.688 58.4062 112.406 58.5 112.031C58.5 111.656 58.2187 111.375 57.8437 111.281C52.5937 110.813 50.1562 108 47.625 105C45.375 102.281 43.0312 99.5625 38.5312 98.5313C38.1562 98.4375 37.875 98.4375 37.5 98.3438V80.1563C37.5937 79.5938 38.625 75.375 41.625 71.9062C42.375 74.0625 43.9687 75.8438 46.0312 76.7813C47.5312 77.4375 48.9375 77.625 50.3437 77.625C51.6562 77.625 53.0625 77.4375 54.375 77.25C59.625 76.4063 65.25 76.2188 71.5312 76.5C71.9062 76.5 72.1875 76.2188 72.2812 75.8438ZM42.1875 56.5312C42.1875 57.2812 41.625 57.8438 40.875 57.8438C40.125 57.8438 39.5625 57.2812 39.5625 56.5312C39.5625 55.7812 40.125 55.2188 40.875 55.2188C41.625 55.125 42.1875 55.7812 42.1875 56.5312ZM30 81.9375C28.3125 82.6875 26.8125 82.5 24.9375 82.2188C22.3125 81.8438 19.5 81.6563 16.5 81.6563C16.4062 81.6563 16.3125 81.6563 16.2187 81.6563C17.9062 80.3438 19.3125 78.4688 20.5312 76.9688L21.0937 76.2188C22.4062 74.5313 24.9375 72.75 27.4687 72.6563C29.0625 72.5625 30.375 73.2188 31.4062 74.3438C32.25 75.2813 32.7187 76.5 32.625 77.7188C31.6875 77.0625 30.6562 76.5938 29.4375 76.2188C29.3437 76.2188 27.1875 75.6563 24.6562 76.9688C24.2812 77.1563 24.1875 77.5313 24.375 77.9063C24.5625 78.2813 24.9375 78.375 25.3125 78.1875C27.375 77.1563 29.0625 77.5313 29.0625 77.5313C30.375 77.8125 31.5 78.4688 32.3437 79.2188C31.9687 80.5313 31.125 81.4688 30 81.9375ZM46.5 105.844C48.1875 107.813 49.875 109.875 52.5 111.188H20.25C21.375 109.125 23.25 108.563 25.4062 107.813C26.8125 107.344 28.3125 106.781 29.7187 105.75C30.9375 104.906 31.7812 103.781 32.5312 102.75C34.0312 100.781 35.1562 99.1875 38.0625 99.8438C42.0937 100.781 44.25 103.313 46.5 105.844ZM54.1875 75.8438C51.4687 76.2188 49.125 76.5938 46.5937 75.4688C44.625 74.625 43.2187 72.9375 42.75 70.7813C43.5 70.0313 44.4375 69.375 45.4687 68.9063C45.75 68.9063 47.3437 68.8125 50.3437 71.0625C50.4375 71.1563 50.625 71.25 50.8125 71.25C51 71.25 51.2812 71.1562 51.375 70.9688C51.5625 70.6875 51.5625 70.2188 51.1875 69.9375C49.875 68.9063 48.75 68.3438 47.9062 67.9688H48C48.1875 67.9688 52.875 66.8437 57.5625 71.9062C57.8437 72.1875 58.3125 72.1875 58.5937 72C58.875 71.7188 58.875 71.25 58.6875 70.9688C53.4375 65.25 48 66.5625 47.8125 66.6563C45.75 67.125 44.0625 68.0625 42.6562 69.1875C42.6562 67.2188 43.3125 65.3438 44.625 63.8438C46.2187 62.0625 48.1875 61.2188 50.4375 61.2188C50.5312 61.2188 50.625 61.2188 50.7187 61.2188C54.5625 61.3125 58.3125 64.0313 60.375 66.5625C60.6562 66.9375 60.9375 67.2188 61.2187 67.5938C63.0937 70.0313 65.5312 73.125 68.3437 75C63.0937 74.8125 58.5 75.0938 54.1875 75.8438Z" fill="#5182DD"/>
<path d="M36.1876 102.656C35.8126 102.469 35.4376 102.656 35.2501 103.031C35.2501 103.031 33.6564 106.875 30.6564 107.25C30.2814 107.344 30.0001 107.625 30.0939 108.094C30.1876 108.469 30.4689 108.656 30.7501 108.656H30.8439C34.5939 108.094 36.4689 103.687 36.4689 103.594C36.7501 103.219 36.5626 102.844 36.1876 102.656Z" fill="#5182DD"/>
<path d="M119.531 111.656L117.469 105.844C117.375 105.563 117.094 105.375 116.813 105.375H108.375V17.9063C108.375 16.2188 107.625 14.5313 106.406 13.3125L102.188 9.28129C100.969 8.15629 99.4688 7.59379 97.875 7.59379H83.3438L80.625 6.00004C80.25 5.81254 79.7812 5.71879 79.3125 5.81254C78.8438 5.90629 78.5625 6.18754 78.2813 6.56254L78.1875 6.65629C77.8125 7.50004 78.0938 8.53129 78.8438 9.00004L79.5938 9.46879L73.7812 19.3125L72.2812 18.4688C71.9062 18.2813 71.5312 18.375 71.3438 18.75L69.75 21.4688C63.5625 19.0313 58.0313 19.3125 56.1563 22.5C56.0625 22.6875 56.0625 22.875 56.0625 23.0625C56.0625 23.25 56.25 23.4375 56.3437 23.5313L82.3125 38.8125C82.4063 38.9063 82.5938 38.9063 82.6875 38.9063C82.9688 38.9063 83.1563 38.8125 83.25 38.5313C84.375 36.5625 84 33.9375 82.125 31.0313C81 29.3438 79.5 27.6563 77.625 26.1563L79.2188 23.4375C79.3125 23.25 79.3125 23.0625 79.3125 22.875C79.2188 22.6875 79.125 22.5 79.0313 22.4063L77.625 21.5625L83.4375 11.7188L84.1875 12.1875C84.4688 12.375 84.75 12.375 85.0312 12.375C85.5938 12.375 86.1562 12.0938 86.4375 11.5313L86.5313 11.4375C87 10.6875 86.7188 9.65629 85.9688 9.18754L85.7813 9.09379H97.875C99.0938 9.09379 100.313 9.56254 101.25 10.4063L105.469 14.4375C106.406 15.375 106.969 16.6875 106.969 18V105.469H98.5313C98.25 105.469 97.9688 105.656 97.875 105.938L95.8125 111.75C95.7188 111.938 95.8125 112.219 95.9063 112.406C96 112.594 96.2813 112.688 96.4688 112.688H118.781C118.969 112.688 119.25 112.594 119.344 112.406C119.531 112.125 119.531 111.938 119.531 111.656ZM81 31.7813C82.4063 33.8438 82.875 35.7188 82.4063 37.125L57.75 22.6875C60.0937 20.25 66.8438 21.0938 73.125 24.75C76.5938 26.7188 79.3125 29.25 81 31.7813ZM76.5938 25.125L71.0625 21.8438L72.1875 19.9688L73.6875 20.8125L76.3125 22.3125L77.8125 23.1563L76.5938 25.125ZM76.4063 20.8125L76.3125 20.7188L75 20.0625L80.8125 10.2188L82.2188 11.0625L76.4063 20.8125ZM85.3125 10.6875L85.2188 10.7813C85.125 10.875 85.0313 10.9688 84.8438 10.875L83.5313 10.125L80.9063 8.62504L79.5938 7.87504C79.5 7.78129 79.4063 7.59379 79.5 7.50004L79.5938 7.40629C79.6875 7.31254 79.6875 7.31254 79.7812 7.31254C79.7812 7.31254 79.7812 7.31254 79.875 7.31254H79.9688L85.2188 10.4063C85.3125 10.4063 85.4063 10.5 85.3125 10.6875ZM97.5 111.188L99 106.781H116.25L117.75 111.188H97.5Z" fill="#616161"/>
</svg>
