<svg width="120" height="120" viewBox="0 0 120 120" fill="none" xmlns="http://www.w3.org/2000/svg">
<path d="M67.3125 28.6874L68.625 29.6249L58.7813 44.1562C57.1875 44.3437 55.9688 45.7499 55.9688 47.3437C55.9688 48.9374 57.1875 50.3437 58.7813 50.5312L68.1562 64.2187H64.9688C63.4688 64.2187 62.25 65.4374 62.25 66.9374V69.1874H59.0625C58.5937 69.1874 58.2187 69.5624 58.2187 70.0312C58.2187 70.4999 58.5937 70.8749 59.0625 70.8749H63H76.3125H80.25C80.7188 70.8749 81.0938 70.4999 81.0938 70.0312C81.0938 69.5624 80.7188 69.1874 80.25 69.1874H77.0625V66.9374C77.0625 65.4374 75.8438 64.2187 74.3438 64.2187H70.0312L60.5625 50.2499C61.6875 49.7812 62.4375 48.5624 62.4375 47.2499C62.4375 45.9374 61.6875 44.8124 60.5625 44.2499L69.9375 30.4687L72.5625 32.3437L77.7188 45.4687C77.8125 45.7499 78.0938 45.9374 78.375 45.9374H78.4687C78.75 45.9374 78.9375 45.8437 79.125 45.5624L82.2187 41.1562C82.875 41.4374 83.625 41.6249 84.375 41.6249C86.4375 41.6249 88.5938 40.4999 90.0938 38.4374C91.125 36.9374 91.6875 35.2499 91.5938 33.5624C91.5 32.1562 91.0312 30.9374 90.0938 30.0937L93.1875 25.6874C93.375 25.4062 93.375 25.1249 93.2812 24.8437C93.1875 24.5624 92.9063 24.3749 92.625 24.3749L78.5625 23.7187L73.3125 19.9687C70.9687 18.2812 67.6875 18.8437 66.0938 21.1874C64.4062 23.8124 64.9688 27.0937 67.3125 28.6874ZM75.4688 67.0312V69.2812H63.8437V67.0312C63.8437 66.4687 64.3125 65.9062 64.9688 65.9062H74.4375C75 65.9062 75.4688 66.3749 75.4688 67.0312ZM59.25 48.9374C58.3125 48.9374 57.6562 48.1874 57.6562 47.3437C57.6562 46.4999 58.4063 45.7499 59.25 45.7499C60.0938 45.7499 60.8438 46.4999 60.8438 47.3437C60.8438 48.1874 60.0938 48.9374 59.25 48.9374ZM90 33.9374C90.0938 35.2499 89.625 36.5624 88.7812 37.7812C87.2812 39.8437 84.9375 40.7812 83.25 40.1249L89.25 31.7812C89.625 32.2499 89.9062 32.9999 90 33.9374ZM67.4063 22.4062C68.0625 21.4687 69.1875 20.9062 70.3125 20.9062C71.0625 20.9062 71.7187 21.0937 72.375 21.5624L77.8125 25.4999C77.9062 25.5937 78.0938 25.6874 78.2812 25.6874L91.125 26.2499L78.6563 43.5937L73.9688 31.6874C73.875 31.4999 73.7812 31.4062 73.6875 31.3124L68.25 27.3749C66.6563 26.2499 66.2813 23.9999 67.4063 22.4062Z" fill="#616161"/>
<path d="M6.75 27.1875H56.8125C57.2812 27.1875 57.6562 26.8125 57.6562 26.3438V17.3437C57.6562 16.875 57.2812 16.5 56.8125 16.5H6.75C6.28125 16.5 5.90625 16.875 5.90625 17.3437V26.3438C6 26.8125 6.28125 27.1875 6.75 27.1875ZM7.59375 18.1875H56.0625V25.5H50.5313V21.1875C50.5313 20.7188 50.1562 20.3438 49.6875 20.3438C49.2188 20.3438 48.8438 20.7188 48.8438 21.1875V25.5H43.4062V22.9688C43.4062 22.5 43.0313 22.125 42.5625 22.125C42.0938 22.125 41.7188 22.5 41.7188 22.9688V25.5H36.0938V21.1875C36.0938 20.7188 35.7188 20.3438 35.25 20.3438C34.7812 20.3438 34.4063 20.7188 34.4063 21.1875V25.5H28.9687V22.9688C28.9687 22.5 28.5938 22.125 28.125 22.125C27.6562 22.125 27.2812 22.5 27.2812 22.9688V25.5H21.6562V21.1875C21.6562 20.7188 21.2813 20.3438 20.8125 20.3438C20.3438 20.3438 19.9687 20.7188 19.9687 21.1875V25.5H14.5312V22.9688C14.5312 22.5 14.1562 22.125 13.6875 22.125C13.2188 22.125 12.8437 22.5 12.8437 22.9688V25.5H7.59375V18.1875Z" fill="#5182DD"/>
<path d="M1.3125 24.9375C1.78125 24.9375 2.15625 24.5625 2.15625 24.0938V10.9687C2.15625 10.5 1.78125 10.125 1.3125 10.125C0.84375 10.125 0.46875 10.5 0.46875 10.9687V24.1875C0.46875 24.5625 0.84375 24.9375 1.3125 24.9375Z" fill="#616161"/>
<path d="M1.3125 33.5625C1.78125 33.5625 2.15625 33.1875 2.15625 32.7188V28.4062C2.15625 27.9375 1.78125 27.5625 1.3125 27.5625C0.84375 27.5625 0.46875 27.9375 0.46875 28.4062V32.7188C0.46875 33.1875 0.84375 33.5625 1.3125 33.5625Z" fill="#616161"/>
<path d="M117.094 86.3438C116.625 86.3438 116.25 86.7188 116.25 87.1875V100.406C116.25 100.875 116.625 101.25 117.094 101.25C117.563 101.25 117.938 100.875 117.938 100.406V87.1875C117.844 86.7188 117.469 86.3438 117.094 86.3438Z" fill="#616161"/>
<path d="M117.094 103.875C116.625 103.875 116.25 104.25 116.25 104.719V109.031C116.25 109.5 116.625 109.875 117.094 109.875C117.563 109.875 117.938 109.5 117.938 109.031V104.719C117.844 104.25 117.469 103.875 117.094 103.875Z" fill="#616161"/>
<path d="M46.875 4.96875C47.0625 5.15625 47.25 5.25 47.4375 5.25C47.625 5.25 47.8125 5.15625 48 4.96875C48.2813 4.6875 48.2813 4.125 48 3.84375L46.4063 2.25C46.125 1.96875 45.5625 1.96875 45.2813 2.25C45 2.53125 45 3.09375 45.2813 3.375L46.875 4.96875Z" fill="#616161"/>
<path d="M52.0312 10.125C52.2187 10.3125 52.4062 10.4062 52.5937 10.4062C52.7812 10.4062 52.9688 10.3125 53.1562 10.125C53.4375 9.84375 53.4375 9.28125 53.1562 9L51.5625 7.40625C51.2813 7.125 50.7187 7.125 50.4375 7.40625C50.1563 7.6875 50.1563 8.25 50.4375 8.53125L52.0312 10.125Z" fill="#616161"/>
<path d="M45.8438 10.4062C46.0313 10.4062 46.2188 10.3125 46.4063 10.125L48 8.53125C48.2813 8.25 48.2813 7.6875 48 7.40625C47.7188 7.125 47.1563 7.125 46.875 7.40625L45.2813 9C45 9.28125 45 9.84375 45.2813 10.125C45.4688 10.3125 45.6563 10.4062 45.8438 10.4062Z" fill="#616161"/>
<path d="M51.0937 5.25C51.2812 5.25 51.4687 5.15625 51.6562 4.96875L53.25 3.375C53.5312 3.09375 53.5312 2.53125 53.25 2.25C52.9687 1.96875 52.4062 1.96875 52.125 2.25L50.5312 3.84375C50.25 4.125 50.25 4.6875 50.5312 4.96875C50.625 5.15625 50.8125 5.25 51.0937 5.25Z" fill="#616161"/>
<path d="M87.5624 110.812C87.2811 110.531 86.7186 110.531 86.4374 110.812C86.1561 111.094 86.1561 111.656 86.4374 111.938L88.0311 113.531C88.2186 113.719 88.4061 113.812 88.5936 113.812C88.7811 113.812 88.9686 113.719 89.1561 113.531C89.4374 113.25 89.4374 112.688 89.1561 112.406L87.5624 110.812Z" fill="#616161"/>
<path d="M92.7186 115.969C92.4374 115.688 91.8749 115.688 91.5936 115.969C91.3124 116.25 91.3124 116.813 91.5936 117.094L93.1874 118.687C93.3749 118.875 93.5624 118.969 93.7499 118.969C93.9374 118.969 94.1249 118.875 94.3124 118.687C94.5936 118.406 94.5936 117.844 94.3124 117.563L92.7186 115.969Z" fill="#616161"/>
<path d="M87.9375 115.969L86.3437 117.563C86.0625 117.844 86.0625 118.406 86.3437 118.687C86.5312 118.875 86.7187 118.969 86.9062 118.969C87.0937 118.969 87.2813 118.875 87.4688 118.687L89.0625 117.094C89.3438 116.813 89.3438 116.25 89.0625 115.969C88.7813 115.688 88.3125 115.688 87.9375 115.969Z" fill="#616161"/>
<path d="M93.1874 110.812L91.5936 112.406C91.3124 112.688 91.3124 113.25 91.5936 113.531C91.7811 113.719 91.9686 113.812 92.1561 113.812C92.3436 113.812 92.5311 113.719 92.7186 113.531L94.3124 111.938C94.5936 111.656 94.5936 111.094 94.3124 110.812C94.0311 110.438 93.4686 110.438 93.1874 110.812Z" fill="#616161"/>
<path d="M100.688 22.5938C100.688 24.75 102.469 26.5313 104.625 26.5313C106.781 26.5313 108.563 24.75 108.563 22.5938C108.563 20.4375 106.781 18.6562 104.625 18.6562C102.469 18.6562 100.688 20.4375 100.688 22.5938ZM106.875 22.5938C106.875 23.8125 105.844 24.8438 104.625 24.8438C103.406 24.8438 102.375 23.8125 102.375 22.5938C102.375 21.375 103.406 20.3438 104.625 20.3438C105.844 20.25 106.875 21.2813 106.875 22.5938Z" fill="#616161"/>
<path d="M17.0625 11.9062C19.2188 11.9062 21 10.125 21 7.96875C21 5.8125 19.2188 4.03125 17.0625 4.03125C14.9063 4.03125 13.125 5.8125 13.125 7.96875C13.125 10.125 14.9063 11.9062 17.0625 11.9062ZM17.0625 5.71875C18.2813 5.71875 19.3125 6.75 19.3125 7.96875C19.3125 9.1875 18.2813 10.2187 17.0625 10.2187C15.8438 10.2187 14.8125 9.1875 14.8125 7.96875C14.8125 6.75 15.8438 5.71875 17.0625 5.71875Z" fill="#616161"/>
<path d="M69.5625 109.875C67.4062 109.875 65.625 111.656 65.625 113.813C65.625 115.969 67.4062 117.75 69.5625 117.75C71.7187 117.75 73.5 115.969 73.5 113.813C73.5 111.656 71.7187 109.875 69.5625 109.875ZM69.5625 116.063C68.3437 116.063 67.3125 115.031 67.3125 113.813C67.3125 112.594 68.3437 111.563 69.5625 111.563C70.7812 111.563 71.8125 112.594 71.8125 113.813C71.8125 115.031 70.875 116.063 69.5625 116.063Z" fill="#616161"/>
<path d="M81 2.0625H95.25C95.7187 2.0625 96.0938 1.6875 96.0938 1.21875C96.0938 0.75 95.7187 0.375 95.25 0.375H81C80.5313 0.375 80.1562 0.75 80.1562 1.21875C80.1562 1.6875 80.5313 2.0625 81 2.0625Z" fill="#616161"/>
<path d="M99.9375 2.0625H104.531C105 2.0625 105.375 1.6875 105.375 1.21875C105.375 0.75 105 0.375 104.531 0.375H99.9375C99.4688 0.375 99.0938 0.75 99.0938 1.21875C99.0938 1.6875 99.4688 2.0625 99.9375 2.0625Z" fill="#616161"/>
<path d="M105.375 6.1875C105.375 5.71875 105 5.34375 104.531 5.34375H94.5938C94.125 5.34375 93.75 5.71875 93.75 6.1875C93.75 6.65625 94.125 7.03125 94.5938 7.03125H104.531C105 7.03125 105.375 6.65625 105.375 6.1875Z" fill="#616161"/>
<path d="M87.0938 5.34375C86.625 5.34375 86.25 5.71875 86.25 6.1875C86.25 6.65625 86.625 7.03125 87.0938 7.03125H90.2812C90.75 7.03125 91.125 6.65625 91.125 6.1875C91.125 5.71875 90.75 5.34375 90.2812 5.34375H87.0938Z" fill="#616161"/>
<path d="M49.0313 117.938H34.7812C34.3125 117.938 33.9375 118.312 33.9375 118.781C33.9375 119.25 34.3125 119.625 34.7812 119.625H49.0313C49.5 119.625 49.875 119.25 49.875 118.781C49.875 118.312 49.5 117.938 49.0313 117.938Z" fill="#616161"/>
<path d="M30.0938 117.938H25.5C25.0313 117.938 24.6562 118.312 24.6562 118.781C24.6562 119.25 25.0313 119.625 25.5 119.625H30.0938C30.5625 119.625 30.9375 119.25 30.9375 118.781C30.9375 118.312 30.5625 117.938 30.0938 117.938Z" fill="#616161"/>
<path d="M25.5 114.656H35.4375C35.9063 114.656 36.2813 114.281 36.2813 113.813C36.2813 113.344 35.9063 112.969 35.4375 112.969H25.5C25.0313 112.969 24.6562 113.344 24.6562 113.813C24.6562 114.281 25.0313 114.656 25.5 114.656Z" fill="#616161"/>
<path d="M42.9375 114.656C43.4062 114.656 43.7812 114.281 43.7812 113.813C43.7812 113.344 43.4062 112.969 42.9375 112.969H39.75C39.2813 112.969 38.9062 113.344 38.9062 113.813C38.9062 114.281 39.2813 114.656 39.75 114.656H42.9375Z" fill="#616161"/>
<path d="M93.5625 94.2187C93.5625 93.9375 93.375 93.5625 93.0938 93.4687L82.6875 88.7812C82.5 88.6875 82.3125 88.6875 82.2187 88.7812C82.125 88.7812 82.125 88.7812 82.0312 88.7812H27.4687C24.4687 88.7812 22.0312 91.2187 22.0312 94.2187C22.0312 97.2187 24.4687 99.6562 27.4687 99.6562H32.7188H37.0312H82.0312H82.125C82.2187 99.6562 82.2188 99.6562 82.3125 99.6562C82.4062 99.6562 82.5 99.6562 82.6875 99.5625L93.0938 94.875C93.375 94.875 93.5625 94.5937 93.5625 94.2187ZM36.2812 90.4688V98.1562H33.5625V90.4688H36.2812ZM23.7187 94.2187C23.7187 92.0625 25.4062 90.375 27.5625 90.375H31.9687V98.0625H27.5625C25.4062 98.0625 23.7187 96.375 23.7187 94.2187ZM81.2812 98.0625H37.9687V90.375H81.2812V98.0625ZM82.875 97.7812V90.75L90.75 94.3125L82.875 97.7812Z" fill="#5182DD"/>
<path d="M55.7811 95.0625H60.0936C60.5624 95.0625 60.9374 94.6875 60.9374 94.2188C60.9374 93.75 60.5624 93.375 60.0936 93.375H55.7811C55.3124 93.375 54.9374 93.75 54.9374 94.2188C54.9374 94.6875 55.3124 95.0625 55.7811 95.0625Z" fill="#5182DD"/>
<path d="M66.6563 95.0625H70.9687C71.4375 95.0625 71.8125 94.6875 71.8125 94.2188C71.8125 93.75 71.4375 93.375 70.9687 93.375H66.6563C66.1875 93.375 65.8125 93.75 65.8125 94.2188C65.8125 94.6875 66.1875 95.0625 66.6563 95.0625Z" fill="#5182DD"/>
<path d="M44.9063 95.0625H49.2188C49.6875 95.0625 50.0625 94.6875 50.0625 94.2188C50.0625 93.75 49.6875 93.375 49.2188 93.375H44.9063C44.4375 93.375 44.0625 93.75 44.0625 94.2188C44.0625 94.6875 44.4375 95.0625 44.9063 95.0625Z" fill="#5182DD"/>
<path d="M114.375 71.9062H34.3125L32.3438 67.3125H47.25C48.8438 67.3125 50.0625 66 50.0625 64.5V39.75C50.0625 38.1562 48.8438 36.9375 47.25 36.9375H8.71875C7.125 36.9375 5.90625 38.25 5.90625 39.75V64.5C5.90625 66.0937 7.125 67.3125 8.71875 67.3125H23.625L21.6562 71.9062H1.3125C0.84375 71.9062 0.46875 72.2812 0.46875 72.75V78.0937C0.46875 78.5625 0.84375 78.9375 1.3125 78.9375H8.34375V111.375C8.34375 111.844 8.71875 112.219 9.1875 112.219H12.375C12.8438 112.219 13.125 111.844 13.2188 111.469L14.7188 79.0312H101.062L102.562 111.469C102.562 111.937 102.938 112.219 103.406 112.219H106.594C107.062 112.219 107.438 111.844 107.438 111.375V78.9375H114.469C114.938 78.9375 115.312 78.5625 115.312 78.0937V72.75C115.219 72.2812 114.844 71.9062 114.375 71.9062ZM7.5 64.5V39.75C7.5 39.0937 8.0625 38.5312 8.71875 38.5312H47.25C47.9062 38.5312 48.4688 39.0937 48.4688 39.75V64.5C48.4688 65.1562 47.9062 65.7187 47.25 65.7187H31.125H24.8438H8.71875C8.0625 65.625 7.5 65.1562 7.5 64.5ZM25.4062 67.3125H30.6562L32.625 71.9062H23.4375L25.4062 67.3125ZM11.5312 110.531H9.9375V78.9375H13.0312L11.5312 110.531ZM105.75 110.531H104.062L102.656 78.9375H105.75V110.531ZM113.531 77.3437H106.5H101.719H13.875H9.09375H2.0625V73.5937H22.125H33.75H113.531V77.3437Z" fill="#616161"/>
<path d="M29.7187 57.0937H39.0937C39.5625 57.0937 39.9375 56.7187 39.9375 56.25V42.2812C39.9375 41.8125 39.5625 41.4375 39.0937 41.4375H25.125C24.6562 41.4375 24.2812 41.8125 24.2812 42.2812V48.75C23.7187 48.6562 23.1562 48.5625 22.5937 48.5625C18.6563 48.5625 15.4688 51.75 15.4688 55.6875C15.4688 59.625 18.6563 62.8125 22.5937 62.8125C26.1562 62.9062 29.0625 60.375 29.7187 57.0937ZM25.9687 51.375C27.1875 52.3125 28.0312 53.8125 28.125 55.5H25.9687V51.375ZM25.9687 43.125H38.25V55.4062H29.8125C29.7187 52.7812 28.2187 50.5312 25.9687 49.4062V43.125ZM22.6875 61.2187C19.6875 61.2187 17.1562 58.7812 17.1562 55.6875C17.1562 52.5937 19.5938 50.1562 22.6875 50.1562C23.25 50.1562 23.8125 50.25 24.375 50.4375V56.25C24.375 56.7187 24.75 57.0937 25.2187 57.0937H28.0312C27.375 59.4375 25.3125 61.2187 22.6875 61.2187Z" fill="#5182DD"/>
<path d="M96.8436 50.9063C96.8436 50.4376 96.4686 50.0626 95.9999 50.1563C95.5311 50.1563 95.2499 50.5313 95.2499 51.0001C95.4374 54.6563 96.9374 57.5626 98.1561 59.8126C99.0936 61.5938 99.8436 63.0938 99.6561 64.2188C99.5624 64.6875 99.9374 65.0625 100.312 65.1563H100.406C100.781 65.1563 101.156 64.8751 101.25 64.5001C101.531 62.8126 100.594 61.1251 99.5624 59.0626C98.4374 56.8126 97.0311 54.2813 96.8436 50.9063Z" fill="#5182DD"/>
<path d="M114.094 49.7813C113.906 49.7813 113.719 49.7813 113.531 49.7813C113.719 48.4688 113.812 47.1563 113.812 45.9375C113.812 44.7188 112.781 43.6875 111.562 43.6875H93C91.7812 43.6875 90.75 44.7188 90.75 45.9375C90.75 50.4375 91.7812 54.9375 93.6562 58.9688L94.875 61.5938C95.9062 63.6563 96.375 66 96.375 68.3438C96.375 69.375 97.2187 70.125 98.1562 70.125H106.125C107.156 70.125 107.906 69.2813 107.906 68.3438C107.906 66 108.469 63.6563 109.406 61.5938L110.437 59.4375C111.375 60.1875 112.594 60.6562 113.812 60.6562C116.812 60.6562 119.25 58.2188 119.25 55.2188C119.531 52.2188 117.094 49.7813 114.094 49.7813ZM108.187 60.9375C107.062 63.2813 106.5 65.8125 106.5 68.4375C106.5 68.5313 106.406 68.625 106.312 68.625H98.3437C98.25 68.625 98.1562 68.5313 98.1562 68.4375C98.1562 65.9063 97.5937 63.2813 96.4687 60.9375L95.25 58.3125C93.4687 54.4688 92.4375 50.1563 92.4375 45.9375C92.4375 45.6563 92.7187 45.375 93 45.375H111.562C111.844 45.375 112.125 45.6563 112.125 45.9375C112.125 47.5313 112.031 49.125 111.75 50.7188C111.375 53.1563 110.625 55.5 109.594 57.75C109.5 57.9375 109.406 58.125 109.312 58.3125L108.187 60.9375ZM114.094 59.0625C113.062 59.0625 112.125 58.6875 111.375 57.9375C112.219 55.875 112.875 53.7188 113.344 51.4688C113.625 51.375 113.812 51.375 114.094 51.375C116.156 51.375 117.937 53.0625 117.937 55.2188C117.937 57.2813 116.156 59.0625 114.094 59.0625Z" fill="#5182DD"/>
</svg>
