<svg width="120" height="118" viewBox="0 0 120 118" fill="none" xmlns="http://www.w3.org/2000/svg">
<path d="M12.1875 3.78125H24.6562C25.0312 3.78125 25.4062 3.5 25.4062 3.03125C25.4062 2.5625 25.125 2.28125 24.6562 2.28125H12.1875C11.8125 2.28125 11.4375 2.5625 11.4375 3.03125C11.4375 3.5 11.8125 3.78125 12.1875 3.78125Z" fill="#616161"/>
<path d="M4.125 3.78125H8.15625C8.53125 3.78125 8.90625 3.5 8.90625 3.03125C8.90625 2.5625 8.53125 2.375 8.15625 2.375H4.125C3.75 2.375 3.375 2.65625 3.375 3.125C3.375 3.59375 3.75 3.78125 4.125 3.78125Z" fill="#616161"/>
<path d="M13.5 7.34375C13.5 6.96875 13.2187 6.59375 12.75 6.59375H4.125C3.75 6.6875 3.375 6.96875 3.375 7.34375C3.375 7.71875 3.75 8.09375 4.125 8.09375H12.75C13.125 8.09375 13.5 7.71875 13.5 7.34375Z" fill="#616161"/>
<path d="M19.3125 6.6875H16.5C16.125 6.6875 15.75 6.96875 15.75 7.4375C15.75 7.90625 16.0313 8.1875 16.5 8.1875H19.3125C19.6875 8.1875 20.0625 7.90625 20.0625 7.4375C20.0625 6.96875 19.6875 6.6875 19.3125 6.6875Z" fill="#616161"/>
<path d="M57.8437 108.875H45.4687C45.0937 108.875 44.7188 109.156 44.7188 109.625C44.7188 110 45 110.375 45.4687 110.375H57.9375C58.3125 110.375 58.6875 110.094 58.6875 109.625C58.5937 109.156 58.3125 108.875 57.8437 108.875Z" fill="#616161"/>
<path d="M66 108.875H61.9687C61.5937 108.875 61.2188 109.156 61.2188 109.625C61.2188 110 61.5 110.375 61.9687 110.375H66C66.375 110.375 66.75 110.094 66.75 109.625C66.6562 109.156 66.375 108.875 66 108.875Z" fill="#616161"/>
<path d="M66 104.562H57.375C57 104.562 56.625 104.844 56.625 105.312C56.625 105.781 56.9062 106.062 57.375 106.062H66C66.375 106.062 66.75 105.781 66.75 105.312C66.75 104.844 66.375 104.562 66 104.562Z" fill="#616161"/>
<path d="M50.0625 105.312C50.0625 105.687 50.3437 106.062 50.8125 106.062H53.625C54 106.062 54.375 105.781 54.375 105.312C54.375 104.844 54.0937 104.563 53.625 104.563H50.8125C50.4375 104.562 50.0625 104.938 50.0625 105.312Z" fill="#616161"/>
<path d="M8.4375 22.8125C8.0625 22.8125 7.6875 23.0938 7.6875 23.5625V34.1562C7.6875 34.5312 7.96875 34.9062 8.4375 34.9062C8.8125 34.9062 9.1875 34.625 9.1875 34.1562V23.4688C9.09375 23.0938 8.8125 22.8125 8.4375 22.8125Z" fill="#616161"/>
<path d="M8.4375 36.875C8.0625 36.875 7.6875 37.1562 7.6875 37.625V41.0937C7.6875 41.4687 7.96875 41.8437 8.4375 41.8437C8.8125 41.8437 9.1875 41.5625 9.1875 41.0937V37.625C9.09375 37.1562 8.8125 36.875 8.4375 36.875Z" fill="#616161"/>
<path d="M118.781 92.1875C118.406 92.1875 118.031 92.4687 118.031 92.9375V103.531C118.031 103.906 118.312 104.281 118.781 104.281C119.156 104.281 119.531 104 119.531 103.531V92.9375C119.531 92.4687 119.25 92.1875 118.781 92.1875Z" fill="#616161"/>
<path d="M118.781 106.25C118.406 106.25 118.031 106.531 118.031 107V110.469C118.031 110.844 118.312 111.219 118.781 111.219C119.156 111.219 119.531 110.937 119.531 110.469V107C119.531 106.531 119.25 106.25 118.781 106.25Z" fill="#616161"/>
<path d="M49.5 74.2812L48.0937 72.875C47.8125 72.5938 47.3437 72.5938 47.0625 72.875C46.7813 73.1562 46.7813 73.625 47.0625 73.9062L48.4687 75.3125C48.5625 75.4062 48.75 75.5 48.9375 75.5C49.125 75.5 49.3125 75.4062 49.4062 75.3125C49.6875 74.9375 49.6875 74.5625 49.5 74.2812Z" fill="#616161"/>
<path d="M51.5626 78.3125L52.9688 79.7188C53.0626 79.8125 53.2501 79.9063 53.4376 79.9063C53.6251 79.9063 53.8126 79.8125 53.9063 79.7188C54.1876 79.4375 54.1876 78.9688 53.9063 78.6875L52.5001 77.375C52.2188 77.0937 51.7501 77.0937 51.4688 77.375C51.2813 77.5625 51.2813 78.0313 51.5626 78.3125Z" fill="#616161"/>
<path d="M48.4688 77.3749L47.0625 78.6874C46.7812 78.9687 46.7812 79.4374 47.0625 79.7187C47.1562 79.8124 47.3438 79.9062 47.5312 79.9062C47.7188 79.9062 47.9062 79.8124 48 79.7187L49.4062 78.3124C49.6875 78.0312 49.6875 77.5624 49.4062 77.2812C49.2188 77.0937 48.75 77.0937 48.4688 77.3749Z" fill="#616161"/>
<path d="M52.0312 75.4063C52.2188 75.4063 52.4062 75.3125 52.5 75.2188L53.9062 73.8125C54.1875 73.5313 54.1875 73.0625 53.9062 72.7813C53.625 72.5 53.1563 72.5 52.875 72.7813L51.5625 74.2813C51.2812 74.5625 51.2812 75.0313 51.5625 75.3125C51.6562 75.4063 51.8438 75.4063 52.0312 75.4063Z" fill="#616161"/>
<path d="M1.6875 91.625C1.40625 91.3438 0.9375 91.3438 0.65625 91.625C0.375 91.9062 0.375 92.375 0.65625 92.6562L2.0625 94.0625C2.15625 94.1562 2.34375 94.25 2.53125 94.25C2.71875 94.25 2.90625 94.1562 3 94.0625C3.28125 93.7812 3.28125 93.3125 3 93.0312L1.6875 91.625Z" fill="#616161"/>
<path d="M6.09375 96.125C5.8125 95.8437 5.34375 95.8437 5.0625 96.125C4.78125 96.4063 4.78125 96.875 5.0625 97.1563L6.46875 98.5625C6.5625 98.6563 6.75 98.75 6.9375 98.75C7.125 98.75 7.3125 98.6563 7.40625 98.5625C7.6875 98.2813 7.6875 97.8125 7.40625 97.5313L6.09375 96.125Z" fill="#616161"/>
<path d="M2.0625 96.1249L0.65625 97.4374C0.375 97.7187 0.375 98.1874 0.65625 98.4687C0.75 98.5624 0.9375 98.6562 1.125 98.6562C1.3125 98.6562 1.5 98.5624 1.59375 98.4687L3 97.0624C3.28125 96.7812 3.28125 96.3124 3 96.0312C2.8125 95.8437 2.34375 95.8437 2.0625 96.1249Z" fill="#616161"/>
<path d="M6.5625 91.625L5.15625 93.0312C4.875 93.3125 4.875 93.7812 5.15625 94.0625C5.25 94.1562 5.4375 94.25 5.625 94.25C5.8125 94.25 6 94.1562 6.09375 94.0625L7.5 92.6562C7.78125 92.375 7.78125 91.9062 7.5 91.625C7.21875 91.3438 6.84375 91.3438 6.5625 91.625Z" fill="#616161"/>
<path d="M101.531 3.40625C101.625 3.5 101.812 3.59375 102 3.59375C102.187 3.59375 102.375 3.5 102.469 3.40625C102.75 3.125 102.75 2.65625 102.469 2.375L101.062 0.96875C100.781 0.6875 100.312 0.6875 100.031 0.96875C99.75 1.25 99.75 1.71875 100.031 2L101.531 3.40625Z" fill="#616161"/>
<path d="M106.031 7.8125C106.125 7.90625 106.312 8 106.5 8C106.687 8 106.875 7.90625 106.969 7.8125C107.25 7.53125 107.25 7.0625 106.969 6.78125L105.562 5.375C105.281 5.09375 104.813 5.09375 104.531 5.375C104.25 5.65625 104.25 6.125 104.531 6.40625L106.031 7.8125Z" fill="#616161"/>
<path d="M100.687 8.09375C100.875 8.09375 101.062 8 101.156 7.90625L102.562 6.5C102.844 6.21875 102.844 5.75 102.562 5.46875C102.281 5.1875 101.813 5.1875 101.531 5.46875L100.125 6.875C99.8437 7.15625 99.8437 7.625 100.125 7.90625C100.313 8 100.5 8.09375 100.687 8.09375Z" fill="#616161"/>
<path d="M105.094 3.59375C105.281 3.59375 105.469 3.5 105.562 3.40625L106.969 2C107.25 1.71875 107.25 1.25 106.969 0.96875C106.687 0.6875 106.219 0.6875 105.938 0.96875L104.531 2.375C104.25 2.65625 104.25 3.125 104.531 3.40625C104.719 3.5 104.906 3.59375 105.094 3.59375Z" fill="#616161"/>
<path d="M85.9688 72.3125C85.9688 74.1875 87.4688 75.6875 89.3438 75.6875C91.2188 75.6875 92.7188 74.1875 92.7188 72.3125C92.7188 70.4375 91.2188 68.9375 89.3438 68.9375C87.4688 68.9375 85.9688 70.4375 85.9688 72.3125ZM91.4063 72.3125C91.4063 73.4375 90.4688 74.2813 89.4375 74.2813C88.4063 74.2813 87.4688 73.3438 87.4688 72.3125C87.4688 71.1875 88.4063 70.3438 89.4375 70.3438C90.4688 70.3438 91.4063 71.1875 91.4063 72.3125Z" fill="#616161"/>
<path d="M60.5625 10.0625C62.4375 10.0625 63.9375 8.5625 63.9375 6.6875C63.9375 4.8125 62.4375 3.3125 60.5625 3.3125C58.6875 3.3125 57.1875 4.8125 57.1875 6.6875C57.1875 8.5625 58.6875 10.0625 60.5625 10.0625ZM60.5625 4.625C61.6875 4.625 62.5312 5.5625 62.5312 6.59375C62.5312 7.71875 61.5937 8.5625 60.5625 8.5625C59.4375 8.5625 58.5937 7.625 58.5937 6.59375C58.5937 5.5625 59.4375 4.625 60.5625 4.625Z" fill="#616161"/>
<path d="M116.156 79.25L112.5 78.5L111.75 74.8438C111.656 74.5625 111.469 74.375 111.281 74.2813C111 74.1875 110.719 74.2813 110.531 74.4688L104.062 80.9375C103.875 81.125 103.781 81.3125 103.875 81.5938L104.625 85.3438L100.312 89.6563C98.9062 88.3438 97.3125 87.2188 95.5312 86.4688C93.5625 85.625 91.5 85.1563 89.3437 85.25C87.2812 85.25 85.2187 85.625 83.3437 86.4688C83.25 86.5625 83.0625 86.5625 82.875 86.6563C82.3125 86.9375 81.75 87.2188 81.2812 87.5C80.1562 88.1563 79.125 88.9063 78.1875 89.8438C77.7187 90.2188 77.3437 90.6875 77.0625 91.1563C76.0312 92.375 75.2812 93.6875 74.625 95.0938C74.1562 96.125 73.875 97.25 73.6875 98.375C73.5 99.3125 73.4062 100.344 73.4062 101.375C73.4062 103.344 73.7812 105.219 74.4375 107C74.5312 107.188 74.5312 107.281 74.625 107.469C75.375 109.438 76.5 111.125 78 112.625L78.0937 112.719C78.1875 112.813 78.2812 112.906 78.375 113C79.7812 114.406 81.4687 115.438 83.25 116.188C85.2187 117.031 87.2812 117.406 89.4375 117.406H89.5312C91.5937 117.406 93.6562 117.031 95.5312 116.188C97.0312 115.531 98.4375 114.688 99.6562 113.75C99.9375 113.563 100.219 113.281 100.5 113C100.594 113 100.594 112.906 100.687 112.906C100.781 112.813 100.875 112.719 100.969 112.625C101.906 111.688 102.656 110.656 103.312 109.531C103.594 108.969 103.875 108.406 104.156 107.938C104.25 107.844 104.25 107.75 104.25 107.656C104.344 107.469 104.437 107.281 104.437 107.094C105.094 105.313 105.469 103.344 105.469 101.375C105.469 100.438 105.375 99.5 105.187 98.4688C105 97.4375 104.719 96.4063 104.25 95.375C104.062 95 103.687 94.8125 103.312 95C102.937 95.1875 102.75 95.5625 102.937 95.9375C103.312 96.875 103.594 97.8125 103.781 98.75C103.969 99.6875 104.062 100.531 104.062 101.375C104.062 103.156 103.781 104.938 103.125 106.531C103.031 106.719 103.031 106.813 102.937 107.094C102.937 107.188 102.844 107.188 102.844 107.281C102.656 107.75 102.375 108.313 102.094 108.781C101.531 109.813 100.781 110.75 99.9375 111.594C99.8437 111.688 99.75 111.781 99.6562 111.875C99.6562 111.875 99.5625 111.875 99.5625 111.969C99.2812 112.25 99 112.438 98.7187 112.719C97.5937 113.656 96.375 114.406 94.9687 114.969C93.1875 115.719 91.4062 116 89.5312 116.094H89.4375C87.5625 116.094 85.5937 115.719 83.8125 114.969C82.125 114.313 80.625 113.281 79.3125 112.063C79.2187 111.969 79.125 111.875 79.125 111.875L79.0312 111.781C77.7187 110.469 76.6875 108.875 75.9375 107.094C75.8437 107 75.8437 106.906 75.75 106.719C75.0937 105.125 74.8125 103.344 74.8125 101.656C74.8125 100.719 74.9062 99.7813 75.0937 98.9375C75.2812 97.9063 75.5625 96.9688 75.9375 95.9375C76.5 94.625 77.25 93.4063 78.0937 92.2813C78.375 91.9063 78.75 91.5313 79.125 91.1563C79.9687 90.3125 80.9062 89.6563 81.9375 89C82.4062 88.7188 82.875 88.4375 83.4375 88.25C83.5312 88.1563 83.625 88.1563 83.8125 88.0625C85.5937 87.3125 87.375 86.9375 89.3437 86.9375H89.4375C91.3125 86.9375 93.2812 87.3125 95.0625 88.0625C96.6562 88.7188 98.1562 89.75 99.4687 90.875L94.7812 95.5625C94.125 95 93.375 94.4375 92.5312 94.1563C91.7812 93.875 90.9375 93.6875 90.1875 93.5938C89.3437 93.5 88.5 93.5938 87.75 93.7813C87.2812 93.875 86.9062 93.9688 86.5312 94.1563C85.5937 94.5313 84.75 95.0938 84.0937 95.75C84.0937 95.75 84.0937 95.75 84 95.8438C83.625 96.2188 83.25 96.6875 82.875 97.1563C82.5937 97.5313 82.4062 98 82.2187 98.4688C81.8437 99.4063 81.5625 100.531 81.5625 101.563C81.5625 102.594 81.75 103.625 82.125 104.563C82.5 105.5 83.0625 106.344 83.8125 107.094C83.9062 107.281 84.0937 107.375 84.1875 107.469C84.8437 108.031 85.5937 108.5 86.4375 108.875C87.375 109.25 88.4062 109.531 89.4375 109.531C90.4687 109.531 91.5 109.344 92.5312 108.969C93 108.781 93.4687 108.5 93.9375 108.219C94.2187 108.031 94.5937 107.75 94.875 107.469C94.9687 107.375 95.0625 107.281 95.1562 107.188C95.25 107.094 95.25 107.094 95.3437 107C96 106.344 96.4687 105.5 96.8437 104.656C97.0312 104.281 97.125 103.813 97.3125 103.344C97.4062 102.781 97.5 102.219 97.5 101.563C97.5 101.375 97.5 101.188 97.5 100.906C97.5 100.531 97.125 100.156 96.75 100.25C96.375 100.25 96.0937 100.625 96.0937 101C96.0937 101.188 96.0937 101.375 96.0937 101.563C96.0937 102.031 96 102.594 95.9062 103.063C95.8125 103.438 95.7187 103.813 95.5312 104.188C95.25 104.938 94.7812 105.594 94.2187 106.156L94.125 106.25L94.0312 106.344C93.9375 106.438 93.9375 106.438 93.8437 106.531C93.5625 106.719 93.375 107 93.0937 107.094C92.8125 107.281 92.4375 107.469 91.9687 107.656C91.2187 107.938 90.375 108.125 89.5312 108.125C88.6875 108.125 87.8437 107.938 87 107.656C86.3437 107.375 85.6875 107 85.125 106.438C85.0312 106.344 84.9375 106.25 84.8437 106.156C84.2812 105.594 83.8125 104.844 83.4375 104.094C83.1562 103.344 82.9687 102.5 82.9687 101.656C82.9687 100.813 83.1562 99.875 83.4375 99.125C83.625 98.75 83.8125 98.375 84 98.0938C84.2812 97.7188 84.5625 97.3438 84.8437 96.9688L84.9375 96.875C85.5 96.3125 86.25 95.8438 87 95.5625C87.375 95.375 87.6562 95.2813 88.0312 95.2813C88.5 95.1875 88.9687 95.0938 89.4375 95.0938C89.625 95.0938 89.8125 95.0938 90 95.0938C90.6562 95.1875 91.3125 95.2813 91.9687 95.5625C92.625 95.8438 93.1875 96.2188 93.75 96.6875L88.9687 101.469C88.6875 101.75 88.6875 102.219 88.9687 102.5C89.0625 102.594 89.25 102.688 89.4375 102.688C89.625 102.688 89.8125 102.594 89.9062 102.5L105.656 86.75L109.406 87.5H109.5C109.687 87.5 109.875 87.4063 109.969 87.3125L116.437 80.8438C116.625 80.6563 116.719 80.375 116.625 80.0938C116.625 79.4375 116.437 79.25 116.156 79.25ZM109.312 85.625L106.031 84.9688L105.375 81.6875L110.625 76.4375L111.187 79.25C111.281 79.5313 111.469 79.7188 111.75 79.8125L114.562 80.375L109.312 85.625Z" fill="#5182DD"/>
<path d="M39 47.2812C39.375 47.2812 39.75 47 39.75 46.5312V15.5938C39.75 15.125 40.125 14.6563 40.6875 14.6563H114.375C114.938 14.6563 115.312 15.0313 115.312 15.5938V55.8125C115.312 56.2812 114.938 56.75 114.375 56.75H47.3438C46.9688 56.75 46.5938 57.0312 46.5938 57.5C46.5938 57.9688 46.875 58.25 47.3438 58.25H114.375C115.688 58.25 116.719 57.2188 116.719 55.9062V15.6875C116.719 14.375 115.688 13.3438 114.375 13.3438H40.5938C39.2813 13.3438 38.25 14.375 38.25 15.6875V46.625C38.25 47 38.5312 47.2812 39 47.2812Z" fill="#5182DD"/>
<path d="M107.906 50.2813H55.4062C55.0312 50.2813 54.6562 50.5625 54.6562 51.0313C54.6562 51.5 54.9375 51.7812 55.4062 51.7812H107.906C109.219 51.7812 110.25 50.75 110.25 49.4375V22.1563C110.25 20.8438 109.219 19.8125 107.906 19.8125H47.0625C45.75 19.8125 44.7188 20.8438 44.7188 22.1563V42.5C44.7188 42.875 45 43.25 45.4687 43.25C45.8437 43.25 46.2187 42.9688 46.2187 42.5V22.1563C46.2187 21.5938 46.5937 21.2188 47.1562 21.2188H107.906C108.375 21.2188 108.844 21.5938 108.844 22.1563V49.4375C108.844 49.9062 108.375 50.2813 107.906 50.2813Z" fill="#5182DD"/>
<path d="M37.5 59.2813C41.3437 57.875 48.6562 54.6875 53.7187 48.6875C54.375 47.9375 54.2812 46.9063 53.8125 45.9688L65.625 32.6563C65.9062 32.375 65.8125 31.9063 65.5312 31.625C65.25 31.3438 64.7812 31.3438 64.5 31.7188L52.9688 44.75C52.9688 44.75 52.9688 44.6563 52.875 44.6563C51.75 43.4375 50.25 43.0625 49.125 43.8125C48.8438 44 48.5625 44.1875 48.1875 44.375C47.4375 44.8438 46.4062 45.4063 45.5625 46.1563C41.4375 49.5313 36.1875 50.4688 35.4375 50.1875L31.125 48.6875C30.75 48.5938 30.4687 48.6875 30.2812 49.0625L26.1562 56.75H24.6562L20.5312 49.0625C20.3437 48.6875 19.9687 48.5 19.6875 48.6875L15.375 50.2813C14.3437 50.6563 13.5 51.2188 12.8437 52.0625C12.8437 52.0625 12.8437 52.1563 12.75 52.1563C12.5625 52.4375 12.375 52.625 12.1875 52.9063C12.0937 53 12.0937 53.0938 12.0937 53.1875C12 53.375 11.9062 53.5625 11.8125 53.8438C11.7187 54.0313 11.7187 54.125 11.625 54.3125C11.5312 54.4063 11.5312 54.5938 11.4375 54.6875C11.3437 54.875 11.3437 55.0625 11.3437 55.25C11.3437 55.3438 11.25 55.4375 11.25 55.5313C11.25 55.8125 11.1562 56.0938 11.1562 56.375C11.1562 56.4688 11.1562 56.6563 11.0625 57.0313C11.0625 57.3125 10.9687 57.5938 10.9687 57.9688V58.0625C10.9687 58.4375 10.875 58.9063 10.875 59.375V59.4688C10.875 59.5625 10.875 59.75 10.875 59.8438V59.9375C10.875 60.0313 10.875 60.2188 10.875 60.3125V60.4063C10.875 60.5 10.875 60.6875 10.875 60.7813C10.875 60.875 10.875 60.875 10.875 60.9688C10.875 61.0625 10.875 61.1563 10.875 61.3438C10.875 61.4375 10.875 61.5313 10.875 61.625C10.875 61.7188 10.875 61.8125 10.875 61.9063C10.875 62 10.875 62.0938 10.875 62.1875C10.875 62.2813 10.875 62.375 10.875 62.5625C10.875 62.6563 10.875 62.75 10.875 62.8438C10.875 62.9375 10.875 63.0313 10.875 63.125C10.875 63.2188 10.875 63.3125 10.875 63.5C10.875 63.5938 10.875 63.6875 10.875 63.7813C10.875 63.875 10.875 64.0625 10.875 64.1563C10.875 64.25 10.875 64.3438 10.875 64.4375C10.875 64.5313 10.875 64.7188 10.875 64.8125C10.875 64.9063 10.875 65 10.875 65.0938C10.875 65.1875 10.875 65.375 10.875 65.4688C10.875 65.5625 10.875 65.6563 10.875 65.75C10.875 65.8438 10.875 66.0313 10.875 66.125C10.875 66.2188 10.875 66.3125 10.875 66.4063C10.875 66.5 10.875 66.6875 10.875 66.7813C10.875 66.875 10.875 66.9688 10.875 66.9688C10.875 67.1563 10.875 67.25 10.875 67.4375C10.875 67.5313 10.875 67.625 10.875 67.625C10.875 67.8125 10.875 67.9063 10.875 68.0938C10.875 68.1875 10.875 68.1875 10.875 68.2813C10.875 68.4688 10.875 68.5625 10.875 68.75C10.875 68.8438 10.875 68.8438 10.875 68.9375C10.875 69.0313 10.875 69.2188 10.875 69.3125C10.875 69.4063 10.875 69.4063 10.875 69.5C10.875 69.5938 10.875 69.7813 10.875 69.875C10.875 69.9688 10.875 69.9688 10.875 70.0625C10.875 70.1563 10.875 70.3438 10.875 70.4375C10.875 70.5313 10.875 70.5313 10.875 70.625C10.875 70.7188 10.875 70.8125 10.875 71C10.875 71.0938 10.875 71.0938 10.875 71.1875C10.875 71.2813 10.875 71.375 10.875 71.4688C10.875 71.5625 10.875 71.5625 10.875 71.6563C10.875 71.75 10.875 71.8438 10.875 71.9375C10.875 72.0313 10.875 72.0313 10.875 72.125V72.2188C11.0625 73.25 11.1562 74.1875 11.25 74.9375C11.3437 75.5938 11.3437 76.3438 11.3437 77.0938V80.75V80.8438C11.5312 82.0625 12.6562 84.2188 15.4687 83.9375L14.5312 113.281C14.5312 113.469 14.625 113.75 14.8125 113.844C14.8125 113.844 14.8125 113.844 14.9062 113.938C14.9062 113.938 15 114.031 15.0937 114.031C15.0937 114.031 15.0938 114.031 15.1875 114.031C15.2812 114.125 15.375 114.125 15.4687 114.219C15.5625 114.313 15.75 114.313 15.8437 114.406H15.9375C16.0312 114.406 16.125 114.5 16.3125 114.5C16.4062 114.5 16.4062 114.5 16.5 114.594C16.6875 114.688 16.7812 114.688 16.9687 114.688C16.9687 114.688 16.9688 114.688 17.0625 114.688C17.25 114.688 17.4375 114.781 17.625 114.781C17.7187 114.781 17.7187 114.781 17.8125 114.781C18 114.781 18.0937 114.781 18.2812 114.781H18.375H18.4688C18.6562 114.781 18.9375 114.781 19.125 114.781H19.2187C19.5 114.781 19.6875 114.688 19.9687 114.594C20.0625 114.594 20.1562 114.594 20.25 114.5C20.4375 114.406 20.625 114.406 20.9062 114.313C21 114.313 21.0937 114.219 21.1875 114.219C21.4687 114.125 21.75 113.938 22.0312 113.75C22.2187 113.656 22.3125 113.469 22.4062 113.188L25.5937 88.9063L28.7812 113.188C28.7812 113.375 28.9687 113.563 29.1562 113.75C30.4687 114.5 31.6875 114.781 32.7188 114.781C34.7812 114.781 36.1875 113.75 36.2812 113.75C36.4687 113.656 36.5625 113.375 36.5625 113.188L35.0625 63.0313C34.7812 61.4375 35.9062 59.8438 37.5 59.2813ZM33.4687 63.2188L34.9687 113C34.2187 113.375 32.3437 114.219 29.9062 112.906L26.0625 83.6563C26.0625 83.6563 26.0625 83.6563 26.0625 83.5625V83.4688C26.0625 83.4688 26.0625 83.375 25.9687 83.375C25.9687 83.375 25.9687 83.2813 25.875 83.2813L25.7812 83.1875C25.7812 83.1875 25.6875 83.1875 25.6875 83.0938C25.6875 83.0938 25.5937 83.0938 25.5 83C25.5 83 25.5 83 25.4062 83C25.4062 83 25.4062 83 25.3125 83H25.2187H25.125C25.125 83 25.0312 83 25.0312 83.0938C25.0312 83.0938 24.9375 83.0938 24.9375 83.1875L24.8437 83.2813C24.8437 83.2813 24.8437 83.375 24.75 83.375C24.75 83.4688 24.6562 83.5625 24.6562 83.6563L20.8125 112.906C18.4688 114.125 16.5 113.375 15.75 113L17.3437 59.6563C17.3437 59.2813 17.0625 58.9063 16.6875 58.9063C16.3125 58.9063 15.9375 59.1875 15.9375 59.5625L14.5312 82.625C12.9375 82.5313 12.5625 81.0313 12.4687 80.75V77.1875V76.7188C12.4687 76.1563 12.4687 75.5938 12.375 74.9375C12.2812 74 12.1875 73.0625 12 72.2188C12 72.125 12 72.0313 11.9062 71.9375C11.9062 71.8438 11.9062 71.75 11.9062 71.6563V71.5625C11.9062 71.4688 11.9062 71.375 11.9062 71.1875V71.0938C11.9062 71 11.9062 70.8125 11.9062 70.7188V70.625C11.9062 70.4375 11.9062 70.3438 11.9062 70.1563C11.9062 70.1563 11.9062 70.1563 11.9062 70.0625C11.9062 69.875 11.9062 69.6875 11.9062 69.5938C11.7187 65.4688 12.2812 59.4688 12.5625 57.2188C12.5625 57.2188 12.5625 57.2188 12.5625 57.125C12.5625 56.75 12.6562 56.5625 12.6562 56.4688V56.375C12.6562 56.1875 12.6562 55.9063 12.75 55.7188C12.8437 55.0625 13.125 54.3125 13.5 53.5625C14.0625 52.625 14.9062 51.9688 15.9375 51.5938L19.6875 50.2813L23.7187 57.7813C23.7187 57.875 23.8125 57.875 23.9062 57.9688C24 57.9688 24 58.0625 24.0937 58.0625C24.1875 58.0625 24.1875 58.0625 24.2812 58.0625H26.625C26.9062 58.0625 27.0937 57.875 27.2812 57.6875L31.3125 50.1875L35.0625 51.5C36.5625 52.0625 42.4687 50.5625 46.5937 47.1875C47.3437 46.5313 48.2812 45.9688 49.0312 45.5938C49.4062 45.4063 49.7812 45.125 50.0625 44.9375C50.9062 44.375 51.75 45.2188 51.9375 45.5C52.6875 46.3438 52.875 47.375 52.5937 47.75C47.8125 53.4688 40.7812 56.5625 37.0312 57.875C34.7812 58.7188 33.375 60.875 33.4687 63.2188Z" fill="#616161"/>
<path d="M21.0939 35.0938C20.0626 36.2188 19.5001 37.8125 19.5939 39.3125L19.7814 42.5938C19.9689 45.5 22.5001 47.8438 25.4064 47.8438C28.3126 47.8438 30.8439 45.5938 31.0314 42.5938L31.2189 39.3125C31.3126 37.7188 30.7501 36.2188 29.7189 35.0938C28.6876 33.9688 27.1876 33.3125 25.5939 33.3125H25.1251C23.6251 33.3125 22.1251 33.9688 21.0939 35.0938ZM28.6876 36.0313C29.5314 36.875 29.9064 38 29.8126 39.2188L29.6251 42.5C29.4376 44.6563 27.6564 46.4375 25.4064 46.4375C23.2501 46.4375 21.3751 44.75 21.1876 42.5L21.0001 39.2188C20.9064 38 21.2814 36.875 22.1251 36.0313C22.9689 35.1875 24.0001 34.7188 25.2189 34.7188H25.6876C26.8126 34.7188 27.9376 35.1875 28.6876 36.0313Z" fill="#616161"/>
</svg>
