<svg width="259" height="46" viewBox="0 0 259 46" fill="none" xmlns="http://www.w3.org/2000/svg">
<path d="M9.05981 31.8167L22.6856 45.1738L45.1776 22.2211L40.6485 17.7687L22.8391 35.9236L18.31 31.4712L36.1194 13.3164L31.5903 8.86403L9.05981 31.8167Z" fill="#1D2E7A"/>
<path d="M22.5011 1.62017e-06L0 22.9284L4.27339 27.1221L26.7745 4.19375L22.5011 1.62017e-06Z" fill="#1D2E7A"/>
<path d="M78.8122 12.2202V15.1052H68.1139V20.3141H78.0509V23.0788H68.1139V28.8486H78.9725V31.7736H64.7081V12.2202H78.8122Z" fill="#1D2E7A"/>
<path d="M82.0177 12.2202H90.953C92.9964 12.2202 94.5992 12.661 95.681 13.5425C96.7629 14.424 97.3238 15.6261 97.3238 17.1487C97.3238 18.0702 97.0834 18.9117 96.5625 19.673C96.0416 20.4343 95.3605 20.9552 94.519 21.2757C95.641 21.5562 96.5625 22.1171 97.2036 22.9185C97.8447 23.76 98.2053 24.7617 98.2053 26.0439C98.2053 27.7668 97.6444 29.1692 96.4824 30.211C95.3204 31.2928 93.8379 31.8137 91.9947 31.8137H82.0177V12.2202ZM85.3834 14.985V20.3942H90.0715C91.3937 20.3942 92.3554 20.1939 92.9964 19.7932C93.6375 19.3925 93.918 18.6713 93.918 17.7096C93.918 16.6278 93.5975 15.8665 92.9564 15.5459C92.3153 15.1853 91.3937 15.025 90.1917 15.025H85.3834V14.985ZM85.3834 22.8785V29.0089H90.5122C91.8345 29.0089 92.8762 28.8086 93.6375 28.3678C94.3988 27.9271 94.7595 27.1257 94.7595 25.9637C94.7595 25.3226 94.6393 24.8017 94.3988 24.361C94.1584 23.9202 93.8379 23.5997 93.3971 23.3993C92.9564 23.199 92.5156 23.0788 92.0749 22.9987C91.6341 22.9185 91.0732 22.8785 90.4321 22.8785H85.3834Z" fill="#1D2E7A"/>
<path d="M101.491 12.2202H109.985C112.109 12.2202 113.752 12.7011 114.994 13.7028C116.196 14.7045 116.837 16.187 116.837 18.1904C116.837 20.0737 116.276 21.5562 115.114 22.638C113.992 23.7199 112.43 24.2808 110.466 24.2808H104.937V31.8137H101.491V12.2202ZM104.937 15.0651V21.4761H109.745C112.229 21.4761 113.471 20.3942 113.471 18.2706C113.471 16.147 112.109 15.0651 109.425 15.0651H104.937Z" fill="#1D2E7A"/>
<path d="M128.217 11.7394C130.981 11.7394 133.225 12.701 134.988 14.5842C136.711 16.4675 137.593 18.9517 137.593 21.9969C137.593 25.0421 136.711 27.5263 134.988 29.4096C133.225 31.2928 130.981 32.2544 128.176 32.2544C125.372 32.2544 123.088 31.2928 121.365 29.4096C119.642 27.5263 118.76 25.0421 118.76 21.9969C118.76 19.0318 119.602 16.5877 121.325 14.6243C123.008 12.701 125.292 11.7394 128.217 11.7394ZM128.176 14.6243C126.373 14.6243 124.931 15.3055 123.849 16.6277C122.767 17.95 122.206 19.7531 122.206 21.9568C122.206 24.2407 122.727 26.0438 123.809 27.3661C124.891 28.6883 126.333 29.3695 128.217 29.3695C129.98 29.3695 131.422 28.6883 132.504 27.3661C133.586 26.0438 134.107 24.2407 134.107 21.9969C134.107 19.7531 133.586 17.9901 132.504 16.6277C131.422 15.3055 129.98 14.6243 128.176 14.6243Z" fill="#1D2E7A"/>
<path d="M161.073 12.2202V31.8137H157.787V16.7079L152.338 31.8137H149.533L143.963 16.7079V31.8137H140.678V12.2202H145.486L150.975 27.5665L156.264 12.2202H161.073Z" fill="#1D2E7A"/>
<path d="M173.614 11.7394C176.379 11.7394 178.623 12.701 180.386 14.5842C182.109 16.4675 182.99 18.9517 182.99 21.9969C182.99 25.0421 182.109 27.5263 180.386 29.4096C178.623 31.2928 176.379 32.2544 173.574 32.2544C170.769 32.2544 168.485 31.2928 166.762 29.4096C165.039 27.5263 164.158 25.0421 164.158 21.9969C164.158 19.0318 164.999 16.5877 166.722 14.6243C168.405 12.701 170.689 11.7394 173.614 11.7394ZM173.574 14.6243C171.771 14.6243 170.328 15.3055 169.247 16.6277C168.165 17.95 167.604 19.7531 167.604 21.9568C167.604 24.2407 168.125 26.0438 169.207 27.3661C170.288 28.6883 171.731 29.3695 173.614 29.3695C175.377 29.3695 176.82 28.6883 177.901 27.3661C178.983 26.0438 179.504 24.2407 179.504 21.9969C179.504 19.7531 178.983 17.9901 177.901 16.6277C176.82 15.3055 175.377 14.6243 173.574 14.6243Z" fill="#1D2E7A"/>
<path d="M202.103 25.7233C202.103 27.6867 201.502 29.1692 200.34 30.211C199.178 31.2528 197.535 31.7736 195.411 31.7736H186.115V12.2202H200.54V15.1853H189.561V19.713H195.411C197.575 19.713 199.218 20.2339 200.38 21.2757C201.542 22.3175 202.103 23.8 202.103 25.7233ZM198.657 25.8034C198.657 24.7617 198.336 23.9603 197.735 23.3993C197.134 22.7983 196.293 22.5178 195.211 22.5178H189.561V29.0089H195.291C197.535 29.0089 198.657 27.9271 198.657 25.8034Z" fill="#1D2E7A"/>
<path d="M214.404 12.1802L221.977 31.8137H218.29L216.407 26.6048H208.634L206.711 31.8137H203.185L210.758 12.1802H214.404ZM215.486 24.0405L212.561 15.7864L209.515 24.0405H215.486Z" fill="#1D2E7A"/>
<path d="M223.74 31.8137V12.2202H227.186V27.2459L235.6 12.2202H239.607V31.8137H236.161V16.788L227.747 31.8137H223.74ZM236.201 7.25174C236.041 8.574 235.6 9.53564 234.879 10.1767C234.158 10.8178 233.076 11.1384 231.673 11.1384C230.271 11.1384 229.229 10.8178 228.468 10.1767C227.747 9.53564 227.306 8.574 227.146 7.25174H228.748C229.109 8.65413 230.071 9.3353 231.673 9.3353C233.276 9.3353 234.238 8.65413 234.598 7.25174H236.201Z" fill="#1D2E7A"/>
<path d="M259 31.8137H255.554V15.1853H249.504L249.143 24.5213C249.023 27.1257 248.502 29.049 247.58 30.2911C246.619 31.5333 245.417 32.1744 243.894 32.1744C243.253 32.1744 242.532 32.0541 241.811 31.8137V29.1692C242.171 29.3295 242.612 29.3696 243.173 29.3696C243.734 29.3696 244.135 29.2494 244.455 28.9689C244.776 28.7285 245.096 28.1274 245.337 27.2459C245.577 26.3644 245.737 25.1223 245.817 23.5596L246.218 12.1802H259V31.8137Z" fill="#1D2E7A"/>
<path d="M68.2341 38.5452V39.1862H66.8718V42.8325H66.1105V39.1862H64.7482V38.5452H68.2341Z" fill="#1D2E7A"/>
<path d="M74.6049 38.5452V39.1862H72.2409V40.3482H74.4447V40.9493H72.2409V42.2314H74.645V42.8725H71.5197V38.5452H74.6049Z" fill="#1D2E7A"/>
<path d="M77.5701 42.8726L79.0927 40.6287L77.6502 38.5452H78.5718L79.5334 40.0678L80.5752 38.5452H81.4166L79.9742 40.6287L81.4968 42.8726H80.5752L79.4934 41.2297L78.4115 42.8726H77.5701Z" fill="#1D2E7A"/>
<path d="M88.1882 38.5452V42.8725H87.4269V40.9493H85.4636V42.8725H84.7023V38.5452H85.4636V40.2681H87.4269V38.5452H88.1882Z" fill="#1D2E7A"/>
<path d="M93.7177 38.425C94.3187 38.425 94.8396 38.6253 95.2002 39.0661C95.5608 39.5068 95.7612 40.0277 95.7612 40.7089C95.7612 41.39 95.5608 41.9109 95.2002 42.3517C94.7995 42.7523 94.3187 42.9928 93.7177 42.9928C93.1167 42.9928 92.5958 42.7924 92.2352 42.3517C91.8345 41.951 91.6742 41.39 91.6742 40.7089C91.6742 40.0678 91.8745 39.5068 92.2352 39.1061C92.5958 38.7054 93.0766 38.425 93.7177 38.425ZM93.6776 39.0661C93.2769 39.0661 92.9564 39.2263 92.716 39.5068C92.4756 39.7873 92.3554 40.188 92.3554 40.6688C92.3554 41.1897 92.4756 41.5503 92.716 41.8708C92.9564 42.1513 93.2769 42.3116 93.6776 42.3116C94.0783 42.3116 94.3989 42.1513 94.6393 41.8708C94.8797 41.5904 94.9999 41.1897 94.9999 40.6688C94.9999 40.188 94.8797 39.7873 94.6393 39.5068C94.3989 39.2263 94.0783 39.0661 93.6776 39.0661Z" fill="#1D2E7A"/>
<path d="M102.573 42.8726H101.811V39.2264H100.489L100.409 41.2699C100.369 41.8308 100.249 42.2716 100.048 42.552C99.8481 42.8325 99.5676 42.9527 99.247 42.9527C99.0868 42.9527 98.9665 42.9127 98.8063 42.8726V42.2716C98.8864 42.3116 98.9665 42.3116 99.0868 42.3116C99.207 42.3116 99.2871 42.2716 99.3672 42.2315C99.4474 42.1914 99.4874 42.0312 99.5676 41.8709C99.6076 41.6705 99.6477 41.3901 99.6878 41.0695L99.7679 38.5853H102.573V42.8726Z" fill="#1D2E7A"/>
<path d="M108.062 38.425C108.663 38.425 109.184 38.6253 109.545 39.0661C109.905 39.5068 110.106 40.0277 110.106 40.7089C110.106 41.39 109.905 41.9109 109.545 42.3517C109.144 42.7523 108.663 42.9928 108.062 42.9928C107.461 42.9928 106.94 42.7924 106.58 42.3517C106.179 41.951 106.019 41.39 106.019 40.7089C106.019 40.0678 106.219 39.5068 106.58 39.1061C106.94 38.7054 107.421 38.425 108.062 38.425ZM108.062 39.0661C107.661 39.0661 107.341 39.2263 107.101 39.5068C106.86 39.7873 106.74 40.188 106.74 40.6688C106.74 41.1897 106.86 41.5503 107.101 41.8708C107.341 42.1513 107.661 42.3116 108.062 42.3116C108.463 42.3116 108.783 42.1513 109.024 41.8708C109.264 41.5904 109.384 41.1897 109.384 40.6688C109.384 40.188 109.264 39.7873 109.024 39.5068C108.783 39.2263 108.463 39.0661 108.062 39.0661Z" fill="#1D2E7A"/>
<path d="M114.313 42.8726H113.552V38.5452H116.477V39.1863H114.313V42.8726Z" fill="#1D2E7A"/>
<path d="M119.682 42.8726V38.5452H120.443V41.8708L122.286 38.5452H123.168V42.8726H122.407V39.5469L120.564 42.8726H119.682Z" fill="#1D2E7A"/>
<path d="M126.814 42.8725V38.5452H127.575V41.8708L129.419 38.5452H130.3V42.8725H129.539V39.5469L127.696 42.8725H126.814Z" fill="#1D2E7A"/>
<path d="M141.92 41.5102C141.92 41.951 141.8 42.2715 141.519 42.5119C141.279 42.7524 140.918 42.8726 140.437 42.8726H138.394V38.5452H141.559V39.1863H139.155V40.188H140.437C140.918 40.188 141.279 40.3082 141.519 40.5486C141.76 40.7489 141.92 41.1095 141.92 41.5102ZM141.159 41.5503C141.159 41.3099 141.079 41.1496 140.958 41.0294C140.838 40.9092 140.638 40.8291 140.397 40.8291H139.155V42.2715H140.397C140.878 42.2315 141.159 41.9911 141.159 41.5503Z" fill="#1D2E7A"/>
<path d="M148.491 38.5452V39.1862H146.127V40.3482H148.331V40.9493H146.127V42.2314H148.531V42.8725H145.406V38.5452H148.491Z" fill="#1D2E7A"/>
<path d="M155.623 41.2298C155.583 41.7507 155.383 42.1914 155.062 42.512C154.742 42.8325 154.301 42.9928 153.74 42.9928C153.139 42.9928 152.658 42.7924 152.258 42.3918C151.857 41.9911 151.697 41.4301 151.697 40.749C151.697 40.3483 151.777 39.9476 151.937 39.627C152.097 39.3065 152.338 39.026 152.658 38.8257C152.979 38.6253 153.339 38.5051 153.78 38.5051C154.221 38.5051 154.622 38.6253 154.982 38.8657C155.303 39.1062 155.543 39.4668 155.583 39.9476H154.822C154.782 39.7072 154.662 39.4668 154.461 39.3466C154.261 39.1863 154.021 39.1062 153.74 39.1062C153.46 39.1062 153.219 39.1863 153.019 39.3466C152.819 39.5068 152.658 39.7072 152.578 39.9476C152.498 40.188 152.458 40.4284 152.458 40.7089C152.458 40.9092 152.498 41.1096 152.538 41.3099C152.578 41.5103 152.658 41.6705 152.738 41.8308C152.819 41.9911 152.979 42.1113 153.139 42.1914C153.299 42.2716 153.5 42.3116 153.74 42.3116C154.381 42.3116 154.742 41.951 154.862 41.1897H155.623V41.2298Z" fill="#1D2E7A"/>
<path d="M162.555 38.5452V42.8726H161.794V39.2263H159.831V42.8726H159.069V38.5452H162.555Z" fill="#1D2E7A"/>
<path d="M166.201 38.5452H168.085C168.565 38.5452 168.926 38.6654 169.166 38.8657C169.447 39.0661 169.567 39.4267 169.567 39.8674C169.567 40.2681 169.447 40.5887 169.207 40.8291C168.966 41.0695 168.606 41.1897 168.165 41.1897H166.963V42.8325H166.201V38.5452ZM166.963 39.1863V40.5887H168.004C168.565 40.5887 168.846 40.3482 168.846 39.8674C168.846 39.3866 168.565 39.1462 167.964 39.1462H166.963V39.1863Z" fill="#1D2E7A"/>
<path d="M174.816 38.425C175.417 38.425 175.938 38.6253 176.299 39.0661C176.699 39.4667 176.86 40.0277 176.86 40.7089C176.86 41.39 176.659 41.9109 176.299 42.3517C175.898 42.7523 175.417 42.9928 174.816 42.9928C174.215 42.9928 173.694 42.7924 173.334 42.3517C172.933 41.951 172.773 41.39 172.773 40.7089C172.773 40.0678 172.973 39.5068 173.334 39.1061C173.694 38.6654 174.175 38.425 174.816 38.425ZM174.816 39.0661C174.415 39.0661 174.095 39.2263 173.854 39.5068C173.614 39.7873 173.494 40.188 173.494 40.6688C173.494 41.1897 173.614 41.5503 173.854 41.8708C174.095 42.1513 174.415 42.3116 174.816 42.3116C175.217 42.3116 175.537 42.1513 175.778 41.8708C176.018 41.5904 176.138 41.1897 176.138 40.6688C176.138 40.188 176.018 39.7873 175.778 39.5068C175.537 39.2263 175.217 39.0661 174.816 39.0661Z" fill="#1D2E7A"/>
<path d="M180.306 38.5452H182.269C182.71 38.5452 183.07 38.6253 183.311 38.8256C183.551 39.026 183.671 39.2664 183.671 39.627C183.671 39.8274 183.631 40.0277 183.511 40.188C183.391 40.3482 183.231 40.4685 183.07 40.5486C183.311 40.6287 183.511 40.7489 183.671 40.9092C183.832 41.1095 183.872 41.3099 183.872 41.5904C183.872 41.951 183.751 42.2715 183.511 42.5119C183.271 42.7524 182.95 42.8726 182.509 42.8726H180.306V38.5452ZM181.067 39.1462V40.3482H182.109C182.389 40.3482 182.63 40.3082 182.75 40.228C182.87 40.1479 182.95 39.9876 182.95 39.7873C182.95 39.5469 182.87 39.3866 182.75 39.3065C182.589 39.2263 182.389 39.1863 182.149 39.1863H181.067V39.1462ZM181.067 40.8691V42.2315H182.189C182.469 42.2315 182.71 42.1914 182.87 42.0712C183.03 41.9911 183.11 41.7907 183.11 41.5503C183.11 41.39 183.07 41.3099 183.03 41.1897C182.99 41.1095 182.91 41.0294 182.83 40.9893C182.75 40.9493 182.63 40.9092 182.549 40.9092C182.469 40.9092 182.349 40.8691 182.189 40.8691H181.067Z" fill="#1D2E7A"/>
<path d="M189.201 38.425C189.802 38.425 190.323 38.6253 190.683 39.0661C191.084 39.4667 191.244 40.0277 191.244 40.7089C191.244 41.39 191.044 41.9109 190.683 42.3517C190.283 42.7523 189.802 42.9928 189.201 42.9928C188.6 42.9928 188.079 42.7924 187.718 42.3517C187.318 41.951 187.157 41.39 187.157 40.7089C187.157 40.0678 187.358 39.5068 187.718 39.1061C188.039 38.6654 188.56 38.425 189.201 38.425ZM189.161 39.0661C188.76 39.0661 188.44 39.2263 188.199 39.5068C187.959 39.7873 187.839 40.188 187.839 40.6688C187.839 41.1897 187.959 41.5503 188.199 41.8708C188.44 42.1513 188.76 42.3116 189.161 42.3116C189.561 42.3116 189.882 42.1513 190.122 41.8708C190.363 41.5904 190.483 41.1897 190.483 40.6688C190.483 40.188 190.363 39.7873 190.122 39.5068C189.882 39.2263 189.561 39.0661 189.161 39.0661Z" fill="#1D2E7A"/>
<path d="M198.537 43.9144H197.815V42.8325H195.011V43.9144H194.289V42.1914H194.69C194.85 41.9109 195.011 41.4702 195.091 40.9092C195.211 40.3483 195.251 39.7873 195.251 39.1863V38.5051H198.056V42.1514H198.537V43.9144ZM197.295 42.1914V39.1863H195.972V39.4668C195.972 39.9877 195.932 40.5085 195.812 41.0294C195.732 41.5503 195.612 41.951 195.451 42.2315H197.295V42.1914Z" fill="#1D2E7A"/>
<path d="M205.268 38.5452V42.8726H204.507V40.9493H202.544V42.8726H201.782V38.5452H202.544V40.2681H204.507V38.5452H205.268Z" fill="#1D2E7A"/>
<path d="M210.757 38.425C211.358 38.425 211.879 38.6253 212.24 39.0661C212.641 39.4667 212.801 40.0277 212.801 40.7089C212.801 41.39 212.601 41.9109 212.24 42.3517C211.839 42.7523 211.358 42.9928 210.757 42.9928C210.156 42.9928 209.635 42.7924 209.275 42.3517C208.874 41.951 208.714 41.39 208.714 40.7089C208.714 40.0678 208.914 39.5068 209.275 39.1061C209.635 38.6654 210.116 38.425 210.757 38.425ZM210.757 39.0661C210.357 39.0661 210.036 39.2263 209.796 39.5068C209.555 39.7873 209.435 40.188 209.435 40.6688C209.435 41.1897 209.555 41.5503 209.796 41.8708C210.036 42.1513 210.357 42.3116 210.757 42.3116C211.158 42.3116 211.479 42.1513 211.719 41.8708C211.959 41.5904 212.08 41.1897 212.08 40.6688C212.08 40.188 211.959 39.7873 211.719 39.5068C211.479 39.2263 211.158 39.0661 210.757 39.0661Z" fill="#1D2E7A"/>
<path d="M216.247 42.8726V38.5452H217.008V41.8709L218.851 38.5452H219.733V42.8726H218.971V39.5469L217.128 42.8726H216.247ZM218.971 37.4633C218.931 37.7438 218.851 37.9842 218.691 38.1044C218.531 38.2246 218.29 38.3048 217.97 38.3048C217.649 38.3048 217.409 38.2246 217.249 38.1044C217.088 37.9842 217.008 37.7438 216.968 37.4633H217.329C217.409 37.7839 217.609 37.9041 217.97 37.9041C218.33 37.9041 218.531 37.7438 218.611 37.4633H218.971Z" fill="#1D2E7A"/>
<path d="M231.513 41.2298C231.473 41.7507 231.273 42.1914 230.952 42.512C230.632 42.8325 230.191 42.9928 229.63 42.9928C229.029 42.9928 228.548 42.7924 228.147 42.3918C227.747 41.9911 227.586 41.4301 227.586 40.749C227.586 40.3483 227.667 39.9476 227.827 39.627C227.987 39.3065 228.228 39.026 228.548 38.8257C228.869 38.6253 229.229 38.5051 229.67 38.5051C230.111 38.5051 230.511 38.6253 230.872 38.8657C231.193 39.1062 231.433 39.4668 231.473 39.9476H230.712C230.672 39.7072 230.551 39.4668 230.351 39.3466C230.151 39.1863 229.91 39.1062 229.63 39.1062C229.349 39.1062 229.109 39.1863 228.909 39.3466C228.708 39.5068 228.548 39.7072 228.468 39.9476C228.388 40.188 228.348 40.4284 228.348 40.7089C228.348 40.9092 228.388 41.1096 228.428 41.3099C228.468 41.5103 228.548 41.6705 228.628 41.8308C228.708 41.9911 228.869 42.1113 229.029 42.1914C229.189 42.2716 229.389 42.3116 229.63 42.3116C230.271 42.3116 230.632 41.951 230.752 41.1897H231.513V41.2298Z" fill="#1D2E7A"/>
<path d="M234.919 38.5452H236.882C237.323 38.5452 237.684 38.6253 237.924 38.8256C238.164 39.026 238.285 39.2664 238.285 39.627C238.285 39.8274 238.245 40.0277 238.124 40.188C238.004 40.3482 237.844 40.4685 237.684 40.5486C237.924 40.6287 238.124 40.7489 238.285 40.9092C238.445 41.1095 238.485 41.3099 238.485 41.5904C238.485 41.951 238.365 42.2715 238.124 42.5119C237.884 42.7524 237.563 42.8726 237.123 42.8726H234.919V38.5452ZM235.68 39.1462V40.3482H236.722C237.003 40.3482 237.243 40.3082 237.363 40.228C237.483 40.1479 237.563 39.9876 237.563 39.7873C237.563 39.5469 237.483 39.3866 237.363 39.3065C237.203 39.2263 237.002 39.1863 236.762 39.1863H235.68V39.1462ZM235.68 40.8691V42.2315H236.802C237.083 42.2315 237.323 42.1914 237.483 42.0712C237.644 41.9911 237.724 41.7907 237.724 41.5503C237.724 41.39 237.684 41.3099 237.644 41.1897C237.604 41.1095 237.523 41.0294 237.443 40.9893C237.363 40.9493 237.243 40.9092 237.163 40.9092C237.083 40.9092 236.962 40.8691 236.802 40.8691H235.68Z" fill="#1D2E7A"/>
<path d="M245.176 42.8725H244.455V41.1095H243.613L242.371 42.8725H241.41L242.732 41.0294C242.371 40.9092 242.131 40.7489 242.011 40.5486C241.89 40.3482 241.81 40.0678 241.81 39.7472C241.81 39.3866 241.931 39.1061 242.171 38.8657C242.411 38.6253 242.772 38.5452 243.213 38.5452H245.176V42.8725ZM244.455 40.5085V39.1462H243.333C243.093 39.1462 242.892 39.1862 242.772 39.3065C242.652 39.4267 242.572 39.5869 242.572 39.7873C242.572 40.2681 242.812 40.4684 243.293 40.4684H244.455V40.5085Z" fill="#1D2E7A"/>
<path d="M252.028 41.5904C252.028 41.7506 251.988 41.8708 251.948 42.0311C251.908 42.1914 251.788 42.3116 251.667 42.4719C251.547 42.6321 251.387 42.7123 251.146 42.8325C250.906 42.9126 250.666 42.9527 250.385 42.9527C249.824 42.9527 249.423 42.8325 249.063 42.552C248.742 42.3116 248.542 41.9109 248.542 41.4301H249.303C249.303 41.7506 249.424 41.991 249.624 42.1113C249.824 42.2715 250.105 42.3517 250.425 42.3517C250.706 42.3517 250.906 42.2715 251.066 42.1513C251.227 42.0311 251.267 41.8308 251.267 41.5904C251.267 41.35 251.187 41.1897 251.066 41.0695C250.906 40.9493 250.746 40.9092 250.465 40.9092H249.944V40.3082H250.465C250.666 40.3082 250.826 40.228 250.946 40.1078C251.066 39.9876 251.146 39.8274 251.146 39.627C251.146 39.4267 251.066 39.3065 250.946 39.1863C250.826 39.0661 250.626 39.026 250.385 39.026C249.784 39.026 249.504 39.2664 249.464 39.7873H248.742C248.742 39.3465 248.903 38.9859 249.223 38.7455C249.504 38.5051 249.904 38.425 250.385 38.425C250.826 38.425 251.227 38.5051 251.507 38.7054C251.788 38.9058 251.948 39.1863 251.948 39.5869C251.948 39.7873 251.868 39.9876 251.747 40.188C251.587 40.3482 251.427 40.4684 251.267 40.5085C251.507 40.5486 251.707 40.6688 251.868 40.8691C251.948 41.1095 252.028 41.35 252.028 41.5904Z" fill="#1D2E7A"/>
<path d="M255.474 42.8725V38.5452H256.235V41.8708L258.078 38.5452H258.96V42.8725H258.198V39.5469L256.355 42.8725H255.474Z" fill="#1D2E7A"/>
</svg>
