<svg width="259" height="46" viewBox="0 0 259 46" fill="none" xmlns="http://www.w3.org/2000/svg">
<path d="M9.05994 31.8167L22.6857 45.1737L45.1777 22.2211L40.6486 17.7687L22.8392 35.9236L18.3101 31.4712L36.1195 13.3164L31.5904 8.86401L9.05994 31.8167Z" fill="white"/>
<path d="M22.5011 0.000108432L0 22.9285L4.27339 27.1222L26.7745 4.19386L22.5011 0.000108432Z" fill="white"/>
<path d="M78.8122 12.2202V15.1051H68.1139V20.314H78.0509V23.0788H68.1139V28.8486H78.9725V31.7736H64.7081V12.2202H78.8122Z" fill="white"/>
<path d="M82.0177 12.2202H90.953C92.9964 12.2202 94.5992 12.661 95.681 13.5425C96.7629 14.424 97.3238 15.626 97.3238 17.1486C97.3238 18.0702 97.0834 18.9116 96.5625 19.6729C96.0416 20.4342 95.3605 20.9551 94.519 21.2757C95.641 21.5562 96.5625 22.1171 97.2036 22.9185C97.8447 23.7599 98.2053 24.7616 98.2053 26.0438C98.2053 27.7668 97.6444 29.1692 96.4824 30.2109C95.3204 31.2928 93.8379 31.8137 91.9947 31.8137H82.0177V12.2202ZM85.3834 14.9849V20.3942H90.0715C91.3937 20.3942 92.3554 20.1938 92.9964 19.7931C93.6375 19.3925 93.918 18.6712 93.918 17.7096C93.918 16.6277 93.5975 15.8664 92.9564 15.5459C92.3153 15.1853 91.3937 15.025 90.1917 15.025H85.3834V14.9849ZM85.3834 22.8784V29.0089H90.5122C91.8345 29.0089 92.8762 28.8085 93.6375 28.3678C94.3988 27.927 94.7595 27.1257 94.7595 25.9637C94.7595 25.3226 94.6393 24.8017 94.3988 24.361C94.1584 23.9202 93.8379 23.5996 93.3971 23.3993C92.9564 23.199 92.5156 23.0788 92.0749 22.9986C91.6341 22.9185 91.0732 22.8784 90.4321 22.8784H85.3834Z" fill="white"/>
<path d="M101.491 12.2202H109.985C112.109 12.2202 113.752 12.701 114.994 13.7027C116.196 14.7045 116.837 16.187 116.837 18.1904C116.837 20.0736 116.276 21.5562 115.114 22.638C113.992 23.7199 112.43 24.2808 110.466 24.2808H104.937V31.8137H101.491V12.2202ZM104.937 15.0651V21.476H109.745C112.229 21.476 113.471 20.3942 113.471 18.2705C113.471 16.1469 112.109 15.0651 109.425 15.0651H104.937Z" fill="white"/>
<path d="M128.217 11.7393C130.981 11.7393 133.225 12.7009 134.988 14.5841C136.711 16.4673 137.593 18.9516 137.593 21.9968C137.593 25.042 136.711 27.5262 134.988 29.4094C133.225 31.2927 130.981 32.2543 128.177 32.2543C125.372 32.2543 123.088 31.2927 121.365 29.4094C119.642 27.5262 118.76 25.042 118.76 21.9968C118.76 19.0317 119.602 16.5875 121.325 14.6242C123.008 12.7009 125.292 11.7393 128.217 11.7393ZM128.177 14.6242C126.374 14.6242 124.931 15.3053 123.849 16.6276C122.767 17.9499 122.206 19.7529 122.206 21.9567C122.206 24.2406 122.727 26.0437 123.809 27.3659C124.891 28.6882 126.333 29.3694 128.217 29.3694C129.98 29.3694 131.422 28.6882 132.504 27.3659C133.586 26.0437 134.107 24.2406 134.107 21.9968C134.107 19.7529 133.586 17.9899 132.504 16.6276C131.422 15.3053 129.98 14.6242 128.177 14.6242Z" fill="white"/>
<path d="M161.073 12.2202V31.8137H157.787V16.7079L152.338 31.8137H149.533L143.964 16.7079V31.8137H140.678V12.2202H145.486L150.976 27.5664L156.265 12.2202H161.073Z" fill="white"/>
<path d="M173.614 11.7393C176.379 11.7393 178.623 12.7009 180.386 14.5841C182.109 16.4673 182.99 18.9516 182.99 21.9968C182.99 25.042 182.109 27.5262 180.386 29.4094C178.623 31.2927 176.379 32.2543 173.574 32.2543C170.769 32.2543 168.485 31.2927 166.763 29.4094C165.04 27.5262 164.158 25.042 164.158 21.9968C164.158 19.0317 165 16.5875 166.722 14.6242C168.405 12.7009 170.689 11.7393 173.614 11.7393ZM173.574 14.6242C171.771 14.6242 170.329 15.3053 169.247 16.6276C168.165 17.9499 167.604 19.7529 167.604 21.9567C167.604 24.2406 168.125 26.0437 169.207 27.3659C170.289 28.6882 171.731 29.3694 173.614 29.3694C175.377 29.3694 176.82 28.6882 177.902 27.3659C178.983 26.0437 179.504 24.2406 179.504 21.9968C179.504 19.7529 178.983 17.9899 177.902 16.6276C176.82 15.3053 175.377 14.6242 173.574 14.6242Z" fill="white"/>
<path d="M202.103 25.7233C202.103 27.6866 201.502 29.1692 200.34 30.2109C199.178 31.2527 197.535 31.7736 195.411 31.7736H186.115V12.2202H200.54V15.1853H189.561V19.713H195.411C197.575 19.713 199.218 20.2339 200.38 21.2757C201.542 22.3175 202.103 23.8 202.103 25.7233ZM198.657 25.8034C198.657 24.7616 198.336 23.9603 197.735 23.3993C197.134 22.7983 196.293 22.5178 195.211 22.5178H189.561V29.0089H195.291C197.535 29.0089 198.657 27.927 198.657 25.8034Z" fill="white"/>
<path d="M214.404 12.1802L221.977 31.8137H218.29L216.407 26.6048H208.634L206.711 31.8137H203.185L210.758 12.1802H214.404ZM215.486 24.0404L212.561 15.7863L209.516 24.0404H215.486Z" fill="white"/>
<path d="M223.74 31.8137V12.2202H227.186V27.2459L235.6 12.2202H239.607V31.8137H236.161V16.788L227.747 31.8137H223.74ZM236.201 7.25171C236.041 8.57397 235.6 9.53561 234.879 10.1767C234.158 10.8178 233.076 11.1383 231.673 11.1383C230.271 11.1383 229.229 10.8178 228.468 10.1767C227.747 9.53561 227.306 8.57397 227.146 7.25171H228.748C229.109 8.6541 230.071 9.33527 231.673 9.33527C233.276 9.33527 234.238 8.6541 234.598 7.25171H236.201Z" fill="white"/>
<path d="M259 31.8137H255.554V15.1853H249.504L249.143 24.5213C249.023 27.1257 248.502 29.049 247.581 30.2911C246.619 31.5332 245.417 32.1743 243.894 32.1743C243.253 32.1743 242.532 32.0541 241.811 31.8137V29.1692C242.171 29.3295 242.612 29.3695 243.173 29.3695C243.734 29.3695 244.135 29.2493 244.455 28.9688C244.776 28.7284 245.096 28.1274 245.337 27.2459C245.577 26.3644 245.737 25.1223 245.818 23.5596L246.218 12.1802H259V31.8137Z" fill="white"/>
<path d="M68.2341 38.5452V39.1863H66.8718V42.8325H66.1105V39.1863H64.7482V38.5452H68.2341Z" fill="white"/>
<path d="M74.605 38.5452V39.1863H72.241V40.3482H74.4448V40.9493H72.241V42.2315H74.6451V42.8726H71.5198V38.5452H74.605Z" fill="white"/>
<path d="M77.5701 42.8726L79.0927 40.6287L77.6502 38.5452H78.5718L79.5334 40.0678L80.5752 38.5452H81.4166L79.9742 40.6287L81.4968 42.8726H80.5752L79.4934 41.2297L78.4115 42.8726H77.5701Z" fill="white"/>
<path d="M88.1882 38.5452V42.8726H87.4269V40.9493H85.4636V42.8726H84.7023V38.5452H85.4636V40.2681H87.4269V38.5452H88.1882Z" fill="white"/>
<path d="M93.7177 38.425C94.3187 38.425 94.8396 38.6254 95.2002 39.0661C95.5608 39.5069 95.7612 40.0278 95.7612 40.709C95.7612 41.3901 95.5608 41.911 95.2002 42.3518C94.7995 42.7524 94.3187 42.9929 93.7177 42.9929C93.1167 42.9929 92.5958 42.7925 92.2352 42.3518C91.8345 41.9511 91.6742 41.3901 91.6742 40.709C91.6742 40.0679 91.8745 39.5069 92.2352 39.1062C92.5958 38.7055 93.0766 38.425 93.7177 38.425ZM93.6776 39.0661C93.2769 39.0661 92.9564 39.2264 92.716 39.5069C92.4756 39.7874 92.3554 40.1881 92.3554 40.6689C92.3554 41.1898 92.4756 41.5504 92.716 41.8709C92.9564 42.1514 93.2769 42.3117 93.6776 42.3117C94.0783 42.3117 94.3989 42.1514 94.6393 41.8709C94.8797 41.5905 94.9999 41.1898 94.9999 40.6689C94.9999 40.1881 94.8797 39.7874 94.6393 39.5069C94.3989 39.2264 94.0783 39.0661 93.6776 39.0661Z" fill="white"/>
<path d="M102.573 42.8725H101.812V39.2263H100.489L100.409 41.2698C100.369 41.8308 100.249 42.2715 100.049 42.552C99.8482 42.8325 99.5677 42.9527 99.2472 42.9527C99.0869 42.9527 98.9667 42.9126 98.8064 42.8725V42.2715C98.8865 42.3116 98.9667 42.3116 99.0869 42.3116C99.2071 42.3116 99.2872 42.2715 99.3674 42.2314C99.4475 42.1914 99.4876 42.0311 99.5677 41.8708C99.6078 41.6705 99.6478 41.39 99.6879 41.0694L99.768 38.5852H102.573V42.8725Z" fill="white"/>
<path d="M108.062 38.425C108.663 38.425 109.184 38.6254 109.545 39.0661C109.905 39.5069 110.106 40.0278 110.106 40.709C110.106 41.3901 109.905 41.911 109.545 42.3518C109.144 42.7524 108.663 42.9929 108.062 42.9929C107.461 42.9929 106.94 42.7925 106.58 42.3518C106.179 41.9511 106.019 41.3901 106.019 40.709C106.019 40.0679 106.219 39.5069 106.58 39.1062C106.94 38.7055 107.421 38.425 108.062 38.425ZM108.062 39.0661C107.661 39.0661 107.341 39.2264 107.101 39.5069C106.86 39.7874 106.74 40.1881 106.74 40.6689C106.74 41.1898 106.86 41.5504 107.101 41.8709C107.341 42.1514 107.661 42.3117 108.062 42.3117C108.463 42.3117 108.783 42.1514 109.024 41.8709C109.264 41.5905 109.384 41.1898 109.384 40.6689C109.384 40.1881 109.264 39.7874 109.024 39.5069C108.783 39.2264 108.463 39.0661 108.062 39.0661Z" fill="white"/>
<path d="M114.313 42.8726H113.552V38.5452H116.477V39.1863H114.313V42.8726Z" fill="white"/>
<path d="M119.682 42.8726V38.5452H120.443V41.8708L122.286 38.5452H123.168V42.8726H122.407V39.5469L120.564 42.8726H119.682Z" fill="white"/>
<path d="M126.814 42.8726V38.5452H127.576V41.8708L129.419 38.5452H130.3V42.8726H129.539V39.5469L127.696 42.8726H126.814Z" fill="white"/>
<path d="M141.92 41.5102C141.92 41.951 141.8 42.2715 141.519 42.5119C141.279 42.7524 140.918 42.8726 140.437 42.8726H138.394V38.5452H141.559V39.1863H139.155V40.188H140.437C140.918 40.188 141.279 40.3082 141.519 40.5486C141.76 40.7489 141.92 41.1095 141.92 41.5102ZM141.159 41.5503C141.159 41.3099 141.079 41.1496 140.958 41.0294C140.838 40.9092 140.638 40.8291 140.397 40.8291H139.155V42.2715H140.397C140.878 42.2315 141.159 41.9911 141.159 41.5503Z" fill="white"/>
<path d="M148.491 38.5452V39.1863H146.127V40.3482H148.331V40.9493H146.127V42.2315H148.531V42.8726H145.406V38.5452H148.491Z" fill="white"/>
<path d="M155.623 41.2298C155.583 41.7507 155.383 42.1914 155.062 42.512C154.742 42.8325 154.301 42.9928 153.74 42.9928C153.139 42.9928 152.658 42.7924 152.258 42.3918C151.857 41.9911 151.697 41.4301 151.697 40.749C151.697 40.3483 151.777 39.9476 151.937 39.627C152.097 39.3065 152.338 39.026 152.658 38.8257C152.979 38.6253 153.339 38.5051 153.78 38.5051C154.221 38.5051 154.622 38.6253 154.982 38.8657C155.303 39.1062 155.543 39.4668 155.583 39.9476H154.822C154.782 39.7072 154.662 39.4668 154.461 39.3466C154.261 39.1863 154.021 39.1062 153.74 39.1062C153.46 39.1062 153.219 39.1863 153.019 39.3466C152.819 39.5068 152.658 39.7072 152.578 39.9476C152.498 40.188 152.458 40.4284 152.458 40.7089C152.458 40.9092 152.498 41.1096 152.538 41.3099C152.578 41.5103 152.658 41.6705 152.738 41.8308C152.819 41.9911 152.979 42.1113 153.139 42.1914C153.299 42.2716 153.5 42.3116 153.74 42.3116C154.381 42.3116 154.742 41.951 154.862 41.1897H155.623V41.2298Z" fill="white"/>
<path d="M162.555 38.5452V42.8726H161.794V39.2263H159.831V42.8726H159.069V38.5452H162.555Z" fill="white"/>
<path d="M166.201 38.5452H168.085C168.565 38.5452 168.926 38.6654 169.166 38.8657C169.447 39.0661 169.567 39.4267 169.567 39.8674C169.567 40.2681 169.447 40.5887 169.207 40.8291C168.966 41.0695 168.606 41.1897 168.165 41.1897H166.963V42.8325H166.201V38.5452ZM166.963 39.1863V40.5887H168.004C168.565 40.5887 168.846 40.3482 168.846 39.8674C168.846 39.3866 168.565 39.1462 167.964 39.1462H166.963V39.1863Z" fill="white"/>
<path d="M174.816 38.425C175.417 38.425 175.938 38.6254 176.299 39.0661C176.699 39.4668 176.86 40.0278 176.86 40.709C176.86 41.3901 176.659 41.911 176.299 42.3518C175.898 42.7524 175.417 42.9929 174.816 42.9929C174.215 42.9929 173.694 42.7925 173.334 42.3518C172.933 41.9511 172.773 41.3901 172.773 40.709C172.773 40.0679 172.973 39.5069 173.334 39.1062C173.694 38.6655 174.175 38.425 174.816 38.425ZM174.816 39.0661C174.416 39.0661 174.095 39.2264 173.855 39.5069C173.614 39.7874 173.494 40.1881 173.494 40.6689C173.494 41.1898 173.614 41.5504 173.855 41.8709C174.095 42.1514 174.416 42.3117 174.816 42.3117C175.217 42.3117 175.537 42.1514 175.778 41.8709C176.018 41.5905 176.138 41.1898 176.138 40.6689C176.138 40.1881 176.018 39.7874 175.778 39.5069C175.537 39.2264 175.217 39.0661 174.816 39.0661Z" fill="white"/>
<path d="M180.306 38.5452H182.269C182.71 38.5452 183.07 38.6253 183.311 38.8256C183.551 39.026 183.671 39.2664 183.671 39.627C183.671 39.8274 183.631 40.0277 183.511 40.188C183.391 40.3482 183.231 40.4685 183.07 40.5486C183.311 40.6287 183.511 40.7489 183.671 40.9092C183.832 41.1095 183.872 41.3099 183.872 41.5904C183.872 41.951 183.751 42.2715 183.511 42.5119C183.271 42.7524 182.95 42.8726 182.509 42.8726H180.306V38.5452ZM181.067 39.1462V40.3482H182.109C182.389 40.3482 182.63 40.3082 182.75 40.228C182.87 40.1479 182.95 39.9876 182.95 39.7873C182.95 39.5469 182.87 39.3866 182.75 39.3065C182.589 39.2263 182.389 39.1863 182.149 39.1863H181.067V39.1462ZM181.067 40.8691V42.2315H182.189C182.469 42.2315 182.71 42.1914 182.87 42.0712C183.03 41.9911 183.11 41.7907 183.11 41.5503C183.11 41.39 183.07 41.3099 183.03 41.1897C182.99 41.1095 182.91 41.0294 182.83 40.9893C182.75 40.9493 182.63 40.9092 182.549 40.9092C182.469 40.9092 182.349 40.8691 182.189 40.8691H181.067Z" fill="white"/>
<path d="M189.201 38.425C189.802 38.425 190.323 38.6254 190.683 39.0661C191.084 39.4668 191.244 40.0278 191.244 40.709C191.244 41.3901 191.044 41.911 190.683 42.3518C190.283 42.7524 189.802 42.9929 189.201 42.9929C188.6 42.9929 188.079 42.7925 187.718 42.3518C187.317 41.9511 187.157 41.3901 187.157 40.709C187.157 40.0679 187.358 39.5069 187.718 39.1062C188.039 38.6655 188.56 38.425 189.201 38.425ZM189.161 39.0661C188.76 39.0661 188.439 39.2264 188.199 39.5069C187.959 39.7874 187.838 40.1881 187.838 40.6689C187.838 41.1898 187.959 41.5504 188.199 41.8709C188.439 42.1514 188.76 42.3117 189.161 42.3117C189.561 42.3117 189.882 42.1514 190.122 41.8709C190.363 41.5905 190.483 41.1898 190.483 40.6689C190.483 40.1881 190.363 39.7874 190.122 39.5069C189.882 39.2264 189.561 39.0661 189.161 39.0661Z" fill="white"/>
<path d="M198.537 43.9144H197.815V42.8325H195.011V43.9144H194.289V42.1914H194.69C194.85 41.9109 195.011 41.4702 195.091 40.9092C195.211 40.3483 195.251 39.7873 195.251 39.1863V38.5051H198.056V42.1514H198.537V43.9144ZM197.295 42.1914V39.1863H195.972V39.4668C195.972 39.9877 195.932 40.5085 195.812 41.0294C195.732 41.5503 195.612 41.951 195.451 42.2315H197.295V42.1914Z" fill="white"/>
<path d="M205.268 38.5452V42.8726H204.507V40.9493H202.544V42.8726H201.782V38.5452H202.544V40.2681H204.507V38.5452H205.268Z" fill="white"/>
<path d="M210.758 38.425C211.359 38.425 211.88 38.6254 212.24 39.0661C212.641 39.4668 212.801 40.0278 212.801 40.709C212.801 41.3901 212.601 41.911 212.24 42.3518C211.839 42.7524 211.359 42.9929 210.758 42.9929C210.157 42.9929 209.636 42.7925 209.275 42.3518C208.874 41.9511 208.714 41.3901 208.714 40.709C208.714 40.0679 208.914 39.5069 209.275 39.1062C209.636 38.6655 210.117 38.425 210.758 38.425ZM210.758 39.0661C210.357 39.0661 210.036 39.2264 209.796 39.5069C209.556 39.7874 209.435 40.1881 209.435 40.6689C209.435 41.1898 209.556 41.5504 209.796 41.8709C210.036 42.1514 210.357 42.3117 210.758 42.3117C211.158 42.3117 211.479 42.1514 211.719 41.8709C211.96 41.5905 212.08 41.1898 212.08 40.6689C212.08 40.1881 211.96 39.7874 211.719 39.5069C211.479 39.2264 211.158 39.0661 210.758 39.0661Z" fill="white"/>
<path d="M216.247 42.8726V38.5452H217.008V41.8709L218.851 38.5452H219.733V42.8726H218.972V39.5469L217.128 42.8726H216.247ZM218.972 37.4634C218.932 37.7439 218.851 37.9843 218.691 38.1045C218.531 38.2247 218.29 38.3048 217.97 38.3048C217.649 38.3048 217.409 38.2247 217.249 38.1045C217.088 37.9843 217.008 37.7439 216.968 37.4634H217.329C217.409 37.7839 217.609 37.9041 217.97 37.9041C218.331 37.9041 218.531 37.7439 218.611 37.4634H218.972Z" fill="white"/>
<path d="M231.513 41.2298C231.473 41.7507 231.273 42.1914 230.952 42.512C230.631 42.8325 230.191 42.9928 229.63 42.9928C229.029 42.9928 228.548 42.7924 228.147 42.3918C227.747 41.9911 227.586 41.4301 227.586 40.749C227.586 40.3483 227.666 39.9476 227.827 39.627C227.987 39.3065 228.227 39.026 228.548 38.8257C228.868 38.6253 229.229 38.5051 229.67 38.5051C230.111 38.5051 230.511 38.6253 230.872 38.8657C231.192 39.1062 231.433 39.4668 231.473 39.9476H230.712C230.672 39.7072 230.551 39.4668 230.351 39.3466C230.151 39.1863 229.91 39.1062 229.63 39.1062C229.349 39.1062 229.109 39.1863 228.909 39.3466C228.708 39.5068 228.548 39.7072 228.468 39.9476C228.388 40.188 228.348 40.4284 228.348 40.7089C228.348 40.9092 228.388 41.1096 228.428 41.3099C228.468 41.5103 228.548 41.6705 228.628 41.8308C228.708 41.9911 228.868 42.1113 229.029 42.1914C229.189 42.2716 229.389 42.3116 229.63 42.3116C230.271 42.3116 230.631 41.951 230.752 41.1897H231.513V41.2298Z" fill="white"/>
<path d="M234.919 38.5452H236.882C237.323 38.5452 237.684 38.6253 237.924 38.8256C238.164 39.026 238.285 39.2664 238.285 39.627C238.285 39.8274 238.245 40.0277 238.124 40.188C238.004 40.3482 237.844 40.4685 237.684 40.5486C237.924 40.6287 238.124 40.7489 238.285 40.9092C238.445 41.1095 238.485 41.3099 238.485 41.5904C238.485 41.951 238.365 42.2715 238.124 42.5119C237.884 42.7524 237.563 42.8726 237.123 42.8726H234.919V38.5452ZM235.68 39.1462V40.3482H236.722C237.002 40.3482 237.243 40.3082 237.363 40.228C237.483 40.1479 237.563 39.9876 237.563 39.7873C237.563 39.5469 237.483 39.3866 237.363 39.3065C237.203 39.2263 237.002 39.1863 236.762 39.1863H235.68V39.1462ZM235.68 40.8691V42.2315H236.802C237.083 42.2315 237.323 42.1914 237.483 42.0712C237.643 41.9911 237.724 41.7907 237.724 41.5503C237.724 41.39 237.684 41.3099 237.643 41.1897C237.603 41.1095 237.523 41.0294 237.443 40.9893C237.363 40.9493 237.243 40.9092 237.163 40.9092C237.083 40.9092 236.962 40.8691 236.802 40.8691H235.68Z" fill="white"/>
<path d="M245.176 42.8726H244.455V41.1095H243.614L242.372 42.8726H241.41L242.732 41.0294C242.372 40.9092 242.131 40.7489 242.011 40.5486C241.891 40.3482 241.811 40.0678 241.811 39.7472C241.811 39.3866 241.931 39.1061 242.171 38.8657C242.412 38.6253 242.772 38.5452 243.213 38.5452H245.176V42.8726ZM244.455 40.5085V39.1462H243.333C243.093 39.1462 242.892 39.1863 242.772 39.3065C242.652 39.4267 242.572 39.5869 242.572 39.7873C242.572 40.2681 242.812 40.4685 243.293 40.4685H244.455V40.5085Z" fill="white"/>
<path d="M252.028 41.5905C252.028 41.7507 251.988 41.8709 251.948 42.0312C251.908 42.1915 251.788 42.3117 251.667 42.472C251.547 42.6322 251.387 42.7124 251.147 42.8326C250.906 42.9127 250.666 42.9528 250.385 42.9528C249.824 42.9528 249.424 42.8326 249.063 42.5521C248.742 42.3117 248.542 41.911 248.542 41.4302H249.303C249.303 41.7507 249.424 41.9911 249.624 42.1113C249.824 42.2716 250.105 42.3518 250.425 42.3518C250.706 42.3518 250.906 42.2716 251.066 42.1514C251.227 42.0312 251.267 41.8309 251.267 41.5905C251.267 41.35 251.187 41.1898 251.066 41.0696C250.906 40.9494 250.746 40.9093 250.465 40.9093H249.945V40.3083H250.465C250.666 40.3083 250.826 40.2281 250.946 40.1079C251.066 39.9877 251.147 39.8274 251.147 39.6271C251.147 39.4268 251.066 39.3066 250.946 39.1863C250.826 39.0661 250.626 39.0261 250.385 39.0261C249.784 39.0261 249.504 39.2665 249.464 39.7874H248.742C248.742 39.3466 248.903 38.986 249.223 38.7456C249.504 38.5052 249.904 38.425 250.385 38.425C250.826 38.425 251.227 38.5052 251.507 38.7055C251.788 38.9059 251.948 39.1863 251.948 39.587C251.948 39.7874 251.868 39.9877 251.748 40.1881C251.587 40.3483 251.427 40.4685 251.267 40.5086C251.507 40.5487 251.708 40.6689 251.868 40.8692C251.948 41.1096 252.028 41.35 252.028 41.5905Z" fill="white"/>
<path d="M255.474 42.8726V38.5452H256.235V41.8708L258.078 38.5452H258.96V42.8726H258.199V39.5469L256.355 42.8726H255.474Z" fill="white"/>
</svg>
