<svg width="151" height="50" viewBox="0 0 151 50" fill="none" xmlns="http://www.w3.org/2000/svg">
<path fill-rule="evenodd" clip-rule="evenodd" d="M24.6794 9.62201C26.6625 9.62201 28.3519 11.2379 28.3519 13.2945C28.3519 15.2777 26.736 16.9671 24.6794 16.9671V9.62201ZM24.6794 49.0649C38.1208 48.9914 49.0649 38.0473 49.0649 24.5324C49.0649 11.0176 38.1942 0.0734505 24.6794 0V4.18669C35.8438 4.26014 44.8048 13.368 44.8048 24.5324C44.8048 35.6969 35.7704 44.7313 24.6794 44.8782V49.0649ZM24.6794 40.5447V20.4192H35.0359C36.2845 20.4192 37.3128 21.4475 37.3128 22.6962C37.3128 23.9448 36.2845 24.9732 35.0359 24.9732H26.8094V38.2677C26.8094 39.4429 25.8546 40.4712 24.6794 40.5447ZM24.6794 16.8936C22.6962 16.8936 21.0068 15.2777 21.0068 13.2211C21.0068 11.2379 22.6227 9.54856 24.6794 9.54856V16.8936ZM24.6794 0C24.6059 0 24.5324 0 24.5324 0C11.0176 0 0 11.0176 0 24.5324C0 38.0473 11.0176 49.0649 24.5324 49.0649C24.6059 49.0649 24.6794 49.0649 24.6794 49.0649V44.8048C24.6059 44.8048 24.5324 44.8048 24.5324 44.8048C13.2945 44.8048 4.18669 35.6969 4.18669 24.459C4.18669 13.2211 13.2945 4.11323 24.5324 4.11323C24.6059 4.11323 24.6794 4.11323 24.6794 4.11323V0ZM24.6794 20.3458V40.4712C24.6059 40.4712 24.5324 40.4712 24.5324 40.4712C23.2838 40.4712 22.2555 39.4429 22.2555 38.1942V24.9732H14.029C12.7804 24.9732 11.7521 23.9448 11.7521 22.6962C11.7521 21.4475 12.7804 20.4192 14.029 20.4192H24.6794V20.3458Z" fill="url(#paint0_linear)"/>
<path d="M62.8736 33.7872V11.8255H58.8338V33.7872H62.8736ZM58.4666 6.97781C58.4666 8.00612 59.1276 9.40167 60.8904 9.40167C62.6532 9.40167 63.3143 8.00612 63.3143 6.97781C63.3143 5.9495 62.6532 4.55396 60.8904 4.55396C59.1276 4.55396 58.4666 5.9495 58.4666 6.97781Z" fill="#1D2E7A"/>
<path d="M77.784 15.2777C82.1175 15.2777 85.129 18.436 85.129 22.8431C85.129 27.2501 82.191 30.4085 77.784 30.4085V34.2279C84.1007 34.2279 89.2422 29.1598 89.2422 22.7696C89.2422 16.4529 84.1741 11.3113 77.784 11.3113V15.2777ZM77.784 30.4085C73.5238 30.4085 70.4389 27.3235 70.4389 22.8431C70.4389 18.3626 73.4504 15.2777 77.784 15.2777V11.4583C71.4672 11.4583 66.3257 16.5263 66.3257 22.9165C66.3257 29.2333 71.3938 34.3748 77.784 34.3748V30.4085Z" fill="#1D2E7A"/>
<path d="M104.079 11.899H96.2201V6.3902H92.1803V26.4422C92.1803 33.7138 97.3218 33.7872 99.1581 33.7872H104.079V29.9678H99.8926C95.9263 29.9678 96.2201 28.4253 96.2201 26.1484V15.7184H104.079V11.899Z" fill="#1D2E7A"/>
<path d="M108.413 31.3634C108.413 32.8324 109.661 34.081 111.13 34.081C112.6 34.081 113.848 32.8324 113.848 31.3634C113.848 29.8944 112.6 28.6457 111.13 28.6457C109.588 28.7191 108.413 29.8944 108.413 31.3634Z" fill="#1D2E7A"/>
<path d="M119.283 33.7872H123.323V23.3572C123.323 15.2777 128.171 15.2043 129.567 15.2043H130.081V11.3848H129.42C127.51 11.3848 125.013 11.6052 123.25 14.3228H123.176V11.8255H119.357V33.7872H119.283Z" fill="#1D2E7A"/>
<path d="M146.534 11.899V23.6511C146.534 25.4873 146.387 28.3519 143.596 29.8943C142.861 30.3351 141.98 30.4819 141.172 30.4819C140.364 30.4819 139.482 30.3351 138.748 29.8943C135.957 28.3519 135.81 25.4873 135.81 23.6511V11.899H131.77V23.6511C131.77 26.736 132.284 30.6288 136.104 32.9793C137.646 33.9341 139.335 34.3014 141.098 34.3014C142.861 34.3014 144.624 33.8607 146.093 32.9793C149.912 30.6288 150.426 26.736 150.426 23.6511V11.899H146.534Z" fill="#1D2E7A"/>
<path d="M62.9471 42.9685H62.286V40.6181H59.7152V42.9685H58.9807V37.6801H59.7152V40.1039H62.286V37.6801H62.9471V42.9685Z" fill="#1D2E7A"/>
<path d="M65.6647 39.0022C66.1788 39.0022 66.6195 39.2225 66.9133 39.5898C67.2071 39.957 67.354 40.4712 67.354 40.9853V41.0588C67.354 41.6464 67.2071 42.0871 66.9133 42.4544C66.6195 42.8216 66.1788 43.042 65.6647 43.042V42.4544C66.0319 42.4544 66.2523 42.3075 66.3992 42.0871C66.5461 41.7933 66.693 41.4995 66.693 41.0588V40.9853C66.693 40.5446 66.6195 40.2508 66.3992 39.957C66.2523 39.6632 65.9585 39.5163 65.6647 39.5163V39.0022ZM63.9019 40.9853C63.9019 40.3977 64.0488 39.957 64.3426 39.5898C64.6364 39.2225 65.0771 39.0022 65.5912 39.0022V39.5898C65.224 39.5898 65.0036 39.7367 64.8567 40.0305C64.7098 40.3243 64.5629 40.6181 64.5629 41.0588V41.1323C64.5629 41.573 64.6364 41.8668 64.8567 42.1606C65.0036 42.4544 65.2974 42.5278 65.6647 42.5278V43.1154C65.1505 43.1154 64.7098 42.8951 64.416 42.5278C64.1222 42.1606 63.9753 41.6464 63.9753 41.1323V40.9853H63.9019Z" fill="#1D2E7A"/>
<path d="M69.9249 39.0756C70.3656 39.0756 70.7328 39.1491 71.0266 39.3694C71.3204 39.5163 71.4673 39.8101 71.4673 40.1774C71.4673 40.3243 71.3939 40.5446 71.3204 40.6915C71.247 40.8384 71.0266 40.9119 70.8797 40.9853C71.1001 41.0588 71.3204 41.1322 71.4673 41.3526C71.6142 41.4995 71.6877 41.7198 71.6877 41.9402C71.6877 42.3074 71.5408 42.6012 71.3204 42.7481C71.0266 42.9685 70.6594 43.0419 70.2187 43.0419H70.0718V42.5278H70.2187C70.5125 42.5278 70.6594 42.4543 70.8063 42.3809C70.9532 42.3074 71.0266 42.1605 71.0266 41.9402C71.0266 41.7198 70.9532 41.6464 70.8063 41.4995C70.6594 41.426 70.439 41.3526 70.2187 41.3526H70.0718V40.8384C70.2921 40.8384 70.5125 40.765 70.6594 40.6915C70.8063 40.6181 70.8797 40.4712 70.8797 40.3243C70.8797 40.1039 70.8063 40.0305 70.6594 39.8836C70.5125 39.8101 70.3656 39.7367 70.0718 39.7367V39.0756H69.9249ZM68.309 42.9685V39.0756H69.8514H69.9249V39.6632H69.8514H69.0435V40.765H69.8514H69.9249V41.2791H68.97V42.4543H69.9249V42.9685H68.309Z" fill="#1D2E7A"/>
<path d="M74.038 39.0022C74.5521 39.0022 74.9928 39.2225 75.2866 39.5898C75.5804 39.957 75.7273 40.4712 75.7273 40.9853V41.0588C75.7273 41.6464 75.5804 42.0871 75.2866 42.4544C74.9928 42.8216 74.5521 43.042 74.038 43.042V42.4544C74.4052 42.4544 74.6256 42.3075 74.7725 42.0871C74.9194 41.7933 75.0663 41.4995 75.0663 41.0588V40.9853C75.0663 40.5446 74.9928 40.2508 74.7725 39.957C74.6256 39.6632 74.3318 39.5163 74.038 39.5163V39.0022ZM72.2751 40.9853C72.2751 40.3977 72.4221 39.957 72.7159 39.5898C73.0097 39.2225 73.4504 39.0022 73.9645 39.0022V39.5898C73.5973 39.5898 73.3769 39.7367 73.23 40.0305C73.0831 40.3243 72.9362 40.6181 72.9362 41.0588V41.1323C72.9362 41.573 73.0097 41.8668 73.23 42.1606C73.3769 42.4544 73.6707 42.5278 74.038 42.5278V43.1154C73.5238 43.1154 73.0831 42.8951 72.7893 42.5278C72.4955 42.1606 72.3486 41.6464 72.3486 41.1323V40.9853H72.2751Z" fill="#1D2E7A"/>
<path d="M78.2248 42.4544C78.4451 42.4544 78.6654 42.3809 78.8123 42.234C78.9592 42.0871 79.0327 41.9402 79.0327 41.7198H79.6938C79.6938 42.0871 79.5469 42.3809 79.2531 42.6013C78.9593 42.8951 78.592 42.9685 78.2248 42.9685C77.7106 42.9685 77.2699 42.7482 76.9761 42.3809C76.6823 42.0137 76.5354 41.5729 76.5354 40.9853V40.8385C76.5354 40.3243 76.6823 39.8102 76.9761 39.4429C77.2699 39.0757 77.7106 38.8553 78.2248 38.8553C78.6655 38.8553 79.0327 39.0022 79.3265 39.296C79.6203 39.5898 79.7672 39.8836 79.6938 40.2508H79.0327C79.0327 40.0305 78.9592 39.8101 78.8123 39.6632C78.6654 39.5163 78.4451 39.4429 78.2248 39.4429C77.8575 39.4429 77.6371 39.5898 77.4902 39.8102C77.3433 40.104 77.2699 40.3977 77.2699 40.765V40.9119C77.2699 41.2792 77.3433 41.6464 77.4902 41.8668C77.6371 42.3075 77.8575 42.4544 78.2248 42.4544Z" fill="#1D2E7A"/>
<path d="M83.5131 39.5898H82.2644V42.9685H81.5299V39.5898H80.2812V39.0756H83.5131V39.5898Z" fill="#1D2E7A"/>
<path d="M86.7449 39.0756H87.4794V42.9685H86.7449V40.1774L84.9821 42.9685H84.321V39.0756H84.9821V41.7933L86.7449 39.0756Z" fill="#1D2E7A"/>
<path d="M93.6493 37.6801H94.3838V42.9685H93.6493V38.9287L91.152 42.9685H90.4175V37.6801H91.152V41.7198L93.6493 37.6801Z" fill="#1D2E7A"/>
<path d="M98.644 42.9685H97.9095V41.2791H96.2201V42.9685H95.4856V39.0756H96.2201V40.765H97.9095V39.0756H98.644V42.9685Z" fill="#1D2E7A"/>
<path d="M102.684 39.5898H101.362V42.9685H100.701V39.5898H99.4519V39.0756H102.684V39.5898Z" fill="#1D2E7A"/>
<path d="M105.034 43.042C104.961 43.042 104.961 43.042 104.887 43.042V42.4544C104.961 42.4544 104.961 42.4544 105.034 42.4544C105.254 42.4544 105.475 42.4544 105.695 42.3809C105.842 42.3075 106.062 42.234 106.136 42.0871L106.43 42.5278C106.283 42.6747 106.136 42.7482 105.842 42.8951C105.622 42.9685 105.401 43.042 105.034 43.042ZM104.887 39.0022C105.401 39.0022 105.842 39.1491 106.062 39.5163C106.356 39.8101 106.43 40.2509 106.43 40.8385V41.2057H104.814V40.6181H105.695V40.5447C105.695 40.2509 105.622 40.0305 105.475 39.8102C105.328 39.5898 105.108 39.5163 104.814 39.5163V39.0022H104.887ZM104.887 43.042C104.373 43.042 104.006 42.8216 103.712 42.5278C103.418 42.1606 103.271 41.7199 103.271 41.1323V40.9853C103.271 40.3977 103.418 39.957 103.785 39.5898C104.079 39.2225 104.52 39.0757 104.961 39.0757V39.6632C104.74 39.6632 104.52 39.7367 104.373 39.957C104.226 40.1774 104.079 40.3977 104.079 40.6915H104.961V41.2792H104.079C104.079 41.6464 104.153 42.0137 104.373 42.234C104.52 42.4544 104.74 42.5278 105.034 42.6013V43.042H104.887Z" fill="#1D2E7A"/>
<path d="M110.616 41.1323C110.616 41.7199 110.469 42.1606 110.249 42.4544C109.955 42.8216 109.588 42.9685 109.147 42.9685C109.074 42.9685 109.074 42.9685 109 42.9685V42.3809C109.294 42.3809 109.515 42.234 109.662 42.0137C109.808 41.7933 109.955 41.4261 109.955 41.0588V40.9853C109.955 40.5446 109.882 40.1774 109.662 39.8836C109.515 39.5898 109.294 39.5164 109 39.4429V38.8553C109.074 38.8553 109.074 38.8553 109.147 38.8553C109.662 38.8553 110.029 39.0757 110.249 39.4429C110.543 39.8102 110.616 40.3243 110.616 40.9853V41.1323ZM108.927 43.042C108.78 43.042 108.56 42.9685 108.413 42.8951C108.266 42.8216 108.046 42.6747 107.972 42.5278V44.4375H107.238V39.0757H107.752L107.899 39.5898C108.046 39.3694 108.193 39.296 108.339 39.1491C108.486 39.0756 108.707 39.0022 108.854 39.0022V39.5898H108.78C108.56 39.5898 108.413 39.6632 108.266 39.7367C108.119 39.8102 107.972 39.9571 107.899 40.104V42.0137C107.972 42.1606 108.119 42.3075 108.266 42.3809C108.413 42.4544 108.56 42.5278 108.78 42.5278H108.854V43.042H108.927Z" fill="#1D2E7A"/>
<path d="M114.656 42.9685H113.922V41.2791H112.232V42.9685H111.498V39.0756H112.232V40.765H113.922V39.0756H114.656V42.9685Z" fill="#1D2E7A"/>
<path d="M117.3 43.042C117.227 43.042 117.227 43.042 117.154 43.042V42.4544C117.227 42.4544 117.227 42.4544 117.3 42.4544C117.521 42.4544 117.741 42.4544 117.961 42.3809C118.108 42.3075 118.329 42.234 118.402 42.0871L118.696 42.5278C118.549 42.6747 118.402 42.7482 118.108 42.8951C117.888 42.9685 117.594 43.042 117.3 43.042ZM117.154 39.0022C117.668 39.0022 118.108 39.1491 118.329 39.5163C118.623 39.8101 118.696 40.2509 118.696 40.8385V41.2057H117.154V40.6181H118.035V40.5447C118.035 40.2509 117.961 40.0305 117.815 39.8102C117.668 39.5898 117.447 39.5163 117.154 39.5163V39.0022ZM117.154 43.042C116.639 43.042 116.272 42.8216 115.978 42.5278C115.685 42.1606 115.538 41.7199 115.538 41.1323V40.9853C115.538 40.3977 115.685 39.957 116.052 39.5898C116.346 39.2225 116.786 39.0757 117.227 39.0757V39.6632C117.007 39.6632 116.786 39.7367 116.639 39.957C116.492 40.1774 116.346 40.3977 116.346 40.6915H117.227V41.2792H116.346C116.346 41.6464 116.419 42.0137 116.639 42.234C116.786 42.4544 117.007 42.5278 117.3 42.6013V43.042H117.154Z" fill="#1D2E7A"/>
<path d="M122.515 39.5898H121.267V42.9685H120.532V39.5898H119.283V39.0756H122.515V39.5898Z" fill="#1D2E7A"/>
<path d="M125.674 42.9685C125.674 42.8216 125.6 42.7481 125.6 42.6747C125.6 42.6012 125.6 42.5278 125.6 42.3809C125.453 42.6012 125.306 42.7481 125.086 42.8216C124.939 42.895 124.866 42.9685 124.719 42.9685V42.3809C124.866 42.3809 125.013 42.3074 125.16 42.234C125.38 42.0871 125.527 41.9402 125.527 41.7933V41.1322H124.719H124.645V40.6181H124.719H125.453V40.2508C125.453 40.0305 125.38 39.8101 125.233 39.7367C125.086 39.5898 124.866 39.5163 124.645 39.5163H124.572V38.9287H124.645C125.086 38.9287 125.453 39.0756 125.674 39.296C125.967 39.5163 126.041 39.8101 126.041 40.2508V42.1605C126.041 42.3074 126.041 42.4543 126.041 42.5278C126.041 42.6747 126.114 42.7481 126.114 42.895H125.674V42.9685ZM124.719 42.9685C124.645 42.9685 124.498 43.0419 124.352 43.0419C123.911 43.0419 123.617 42.9685 123.397 42.7481C123.176 42.5278 123.103 42.234 123.103 41.8667C123.103 41.4995 123.25 41.2057 123.544 40.9853C123.837 40.765 124.205 40.6915 124.645 40.6915V41.2057C124.425 41.2057 124.205 41.2791 124.058 41.426C123.911 41.5729 123.837 41.7198 123.837 41.9402C123.837 42.0871 123.911 42.234 123.984 42.3809C124.058 42.4543 124.278 42.5278 124.498 42.5278C124.572 42.5278 124.645 42.5278 124.719 42.5278V42.9685ZM124.719 39.5163C124.498 39.5163 124.352 39.5898 124.205 39.6632C124.058 39.8101 123.984 39.8836 123.984 40.1039H123.323C123.323 39.8101 123.47 39.5898 123.69 39.296C123.984 39.0756 124.278 38.9287 124.645 38.9287V39.5163H124.719Z" fill="#1D2E7A"/>
<path d="M130.815 39.0756C131.256 39.0756 131.623 39.1491 131.917 39.3694C132.211 39.5163 132.358 39.8101 132.358 40.1774C132.358 40.3243 132.284 40.5446 132.211 40.6915C132.137 40.8384 131.917 40.9119 131.77 40.9853C131.99 41.0588 132.211 41.1322 132.358 41.3526C132.505 41.4995 132.578 41.7198 132.578 41.9402C132.578 42.3074 132.431 42.6012 132.211 42.7481C131.917 42.9685 131.55 43.0419 131.109 43.0419H130.962V42.5278H131.109C131.403 42.5278 131.55 42.4543 131.697 42.3809C131.844 42.3074 131.917 42.1605 131.917 41.9402C131.917 41.7198 131.844 41.6464 131.697 41.4995C131.55 41.426 131.329 41.3526 131.109 41.3526H130.962V40.8384C131.182 40.8384 131.403 40.765 131.55 40.6915C131.697 40.6181 131.77 40.4712 131.77 40.3243C131.77 40.1039 131.697 40.0305 131.55 39.8836C131.403 39.8101 131.256 39.7367 130.962 39.7367V39.0756H130.815ZM129.199 42.9685V39.0756H130.742H130.815V39.6632H130.742H129.934V40.765H130.742H130.815V41.2791H129.86V42.4543H130.815V42.9685H129.199Z" fill="#1D2E7A"/>
<path d="M135.002 43.042C134.928 43.042 134.928 43.042 134.855 43.042V42.4544C134.928 42.4544 134.928 42.4544 135.002 42.4544C135.222 42.4544 135.443 42.4544 135.663 42.3809C135.81 42.3075 136.03 42.234 136.104 42.0871L136.397 42.5278C136.25 42.6747 136.104 42.7482 135.81 42.8951C135.589 42.9685 135.296 43.042 135.002 43.042ZM134.855 39.0022C135.369 39.0022 135.81 39.1491 136.03 39.5163C136.324 39.8101 136.397 40.2509 136.397 40.8385V41.2057H134.781V40.6181H135.663V40.5447C135.663 40.2509 135.589 40.0305 135.443 39.8102C135.296 39.5898 135.075 39.5163 134.781 39.5163V39.0022H134.855ZM134.855 43.042C134.341 43.042 133.974 42.8216 133.68 42.5278C133.386 42.1606 133.239 41.7199 133.239 41.1323V40.9853C133.239 40.3977 133.386 39.957 133.753 39.5898C134.047 39.2225 134.488 39.0757 134.928 39.0757V39.6632C134.708 39.6632 134.488 39.7367 134.341 39.957C134.194 40.1774 134.047 40.3977 134.047 40.6915H134.928V41.2792H134.047C134.047 41.6464 134.12 42.0137 134.341 42.234C134.488 42.4544 134.708 42.5278 135.002 42.6013V43.042H134.855Z" fill="#1D2E7A"/>
<path d="M137.94 39.0756V42.3809H139.336V39.0756H139.997V42.3809H141.392V39.0756H142.127V42.4543H142.714V44.1437H142.053V42.9685H137.205V39.0756H137.94Z" fill="#1D2E7A"/>
<path d="M145.065 43.042C144.991 43.042 144.991 43.042 144.918 43.042V42.4544C144.991 42.4544 144.991 42.4544 145.065 42.4544C145.285 42.4544 145.505 42.4544 145.726 42.3809C145.873 42.3075 146.093 42.234 146.166 42.0871L146.46 42.5278C146.313 42.6747 146.166 42.7482 145.873 42.8951C145.652 42.9685 145.358 43.042 145.065 43.042ZM144.918 39.0022C145.432 39.0022 145.873 39.1491 146.093 39.5163C146.387 39.8101 146.46 40.2509 146.46 40.8385V41.2057H144.844V40.6181H145.726V40.5447C145.726 40.2509 145.652 40.0305 145.505 39.8102C145.358 39.5898 145.138 39.5163 144.844 39.5163V39.0022H144.918ZM144.918 43.042C144.404 43.042 144.036 42.8216 143.742 42.5278C143.449 42.1606 143.302 41.7199 143.302 41.1323V40.9853C143.302 40.3977 143.449 39.957 143.816 39.5898C144.11 39.2225 144.55 39.0757 144.991 39.0757V39.6632C144.771 39.6632 144.55 39.7367 144.404 39.957C144.257 40.1774 144.11 40.3977 144.11 40.6915H144.991V41.2792H144.11C144.11 41.6464 144.183 42.0137 144.404 42.234C144.55 42.4544 144.771 42.5278 145.065 42.6013V43.042H144.918Z" fill="#1D2E7A"/>
<path d="M149.765 39.0756H150.5V42.9685H149.765V40.1774L148.076 42.9685H147.342V39.0756H148.076V41.8667L149.765 39.0756ZM149.986 37.4597C149.986 37.7535 149.912 37.9739 149.692 38.1942C149.472 38.3411 149.251 38.488 148.884 38.488C148.517 38.488 148.296 38.4146 148.076 38.1942C147.856 38.0473 147.782 37.827 147.782 37.5332H148.296C148.296 37.6801 148.37 37.827 148.443 37.9004C148.517 37.9739 148.664 38.0473 148.811 38.0473C148.957 38.0473 149.104 37.9739 149.178 37.9004C149.251 37.827 149.325 37.6801 149.325 37.5332H149.986V37.4597Z" fill="#1D2E7A"/>
<defs>
<linearGradient id="paint0_linear" x1="24.4954" y1="49.0328" x2="24.4954" y2="9.63104" gradientUnits="userSpaceOnUse">
<stop stop-color="#1D2E7A"/>
</linearGradient>
</defs>
</svg>
