<svg width="24" height="25" viewBox="0 0 24 25" fill="none" xmlns="http://www.w3.org/2000/svg">
<path d="M18.8482 10.9591L10.7165 19.0908C9.15376 20.6535 6.62232 20.6535 5.05961 19.0908C3.4969 17.5281 3.4969 14.9967 5.05961 13.434L13.8984 4.59514C14.8743 3.61933 16.4582 3.61933 17.434 4.59514C18.4098 5.57095 18.4098 7.15486 17.434 8.13067L10.0094 15.5553C9.62045 15.9442 8.98405 15.9442 8.59515 15.5553C8.20624 15.1664 8.20624 14.53 8.59515 14.1411L15.3127 7.42356L14.252 6.3629L7.53449 13.0804C6.55868 14.0562 6.55868 15.6401 7.53449 16.6159C8.51029 17.5918 10.0942 17.5918 11.07 16.6159L18.4946 9.19133C20.0573 7.62862 20.0573 5.09718 18.4946 3.53448C16.9319 1.97177 14.4005 1.97177 12.8378 3.53448L3.99895 12.3733C1.84935 14.5229 1.84935 18.0019 3.99895 20.1515C6.14855 22.3011 9.62752 22.3011 11.7771 20.1515L19.9089 12.0198L18.8482 10.9591Z" fill="#60749D"/>
</svg>
